STARTFONT 2.1
COMMENT Copyright (C) 1994 Electrotechnical Laboratory, Japan.
COMMENT You can use, copy, modify, distribute this file for free.
COMMENT 94.09.14 Created by Takahashi N. <ntakahas@etl.go.jp>
FONT -Etl-Fixed-Medium-R-Normal--60-600-72-72-C-300-ISO8859-1
SIZE 60 72 72
FONTBOUNDINGBOX 30 60 0 -5
STARTPROPERTIES 20
FONTNAME_REGISTRY ""
FOUNDRY "ETL"
FAMILY_NAME "Fixed"
WEIGHT_NAME "Medium"
SLANT "R"
SETWIDTH_NAME "Normal"
ADD_STYLE_NAME ""
PIXEL_SIZE 60
POINT_SIZE 600
RESOLUTION_X 72
RESOLUTION_Y 72
SPACING "C"
AVERAGE_WIDTH 300
CHARSET_REGISTRY "ISO8859"
CHARSET_ENCODING "1"
DEFAULT_CHAR 32
FONT_DESCENT 5
FONT_ASCENT 55
_MULE_BASELINE_OFFSET -5
COPYRIGHT "Copyright (C) 1994 Electrotechnical Laboratory, Japan."
ENDPROPERTIES
CHARS 191
STARTCHAR SPACE
ENCODING 32
SWIDTH 1250 0
DWIDTH 30 0
BBX 30 60 0 -5
BITMAP
00000000
00000000
00000000
00000000
00000000
00000000
00000000
00000000
00000000
00000000
00000000
00000000
00000000
00000000
00000000
00000000
00000000
00000000
00000000
00000000
00000000
00000000
00000000
00000000
00000000
00000000
00000000
00000000
00000000
00000000
00000000
00000000
00000000
00000000
00000000
00000000
00000000
00000000
00000000
00000000
00000000
00000000
00000000
00000000
00000000
00000000
00000000
00000000
00000000
00000000
00000000
00000000
00000000
00000000
00000000
00000000
00000000
00000000
00000000
00000000
ENDCHAR
STARTCHAR EXCLAMATION MARK
ENCODING 33
SWIDTH 1250 0
DWIDTH 30 0
BBX 30 60 0 -5
BITMAP
00000000
00000000
00000000
00000000
00000000
00000000
00000000
00000000
00000000
00000000
00000000
00000000
000FC000
000FC000
000FC000
000FC000
000FC000
000FC000
000FC000
000FC000
000FC000
000FC000
000FC000
000FC000
000FC000
000FC000
000FC000
000FC000
000FC000
000FC000
000FC000
000FC000
000FC000
000FC000
000FC000
000FC000
000FC000
000FC000
00000000
00000000
00000000
00000000
000FC000
000FC000
000FC000
003FF000
003FF000
003FF000
000FC000
000FC000
00000000
00000000
00000000
00000000
00000000
00000000
00000000
00000000
00000000
00000000
ENDCHAR
STARTCHAR QUOTATION MARK
ENCODING 34
SWIDTH 1250 0
DWIDTH 30 0
BBX 30 60 0 -5
BITMAP
00000000
00000000
00000000
00000000
00000000
00000000
00000000
00000000
00000000
00000000
01F87E00
01F87E00
01F87E00
01F87E00
01F87E00
01F87E00
01F87E00
01F87E00
01F87E00
01F87E00
01F87E00
01F87E00
01F87E00
00000000
00000000
00000000
00000000
00000000
00000000
00000000
00000000
00000000
00000000
00000000
00000000
00000000
00000000
00000000
00000000
00000000
00000000
00000000
00000000
00000000
00000000
00000000
00000000
00000000
00000000
00000000
00000000
00000000
00000000
00000000
00000000
00000000
00000000
00000000
00000000
00000000
ENDCHAR
STARTCHAR NUMBER SIGN
ENCODING 35
SWIDTH 1250 0
DWIDTH 30 0
BBX 30 60 0 -5
BITMAP
00000000
00000000
00000000
00000000
00000000
00000000
00000000
00000000
00000000
00000000
00000000
00000000
003E0F80
003E0F80
003E0F80
003E0F80
003E0F80
003E0F80
003E0F80
003E0F80
07FFFFF0
07FFFFF0
07FFFFF0
07FFFFF0
07FFFFF0
01F87E00
01F87E00
01F87E00
01F87E00
01F87E00
01F87E00
01F87E00
01F87E00
01F87E00
01F87E00
3FFFFF80
3FFFFF80
3FFFFF80
3FFFFF80
3FFFFF80
07C1F000
07C1F000
07C1F000
07C1F000
07C1F000
07C1F000
07C1F000
07C1F000
00000000
00000000
00000000
00000000
00000000
00000000
00000000
00000000
00000000
00000000
00000000
00000000
ENDCHAR
STARTCHAR DOLLAR SIGN
ENCODING 36
SWIDTH 1250 0
DWIDTH 30 0
BBX 30 60 0 -5
BITMAP
00000000
00000000
00000000
00000000
00000000
00000000
00000000
00000000
00000000
00000000
00000000
00000000
000FC000
000FC000
000FC000
01FFFE00
01FFFE00
07FFFFF0
07FFFFF0
07FFFFF0
3F0FC3F0
3F0FC3F0
3F0FC3F0
3F0FC000
3F0FC000
07FFC000
07FFC000
07FFFE00
01FFFE00
01FFFE00
000FFF80
000FFF80
000FFFF0
000FC3F0
000FC3F0
000FC3F0
000FC3F0
3F0FC3F0
3F0FC3F0
3F0FC3F0
3FFFFF80
3FFFFF80
3FFFFF80
07FFFE00
07FFFE00
000FC000
000FC000
000FC000
00000000
00000000
00000000
00000000
00000000
00000000
00000000
00000000
00000000
00000000
00000000
00000000
ENDCHAR
STARTCHAR PERCENT SIGN
ENCODING 37
SWIDTH 1250 0
DWIDTH 30 0
BBX 30 60 0 -5
BITMAP
00000000
00000000
00000000
00000000
00000000
00000000
00000000
00000000
00000000
00000000
00000000
00000000
07F80F80
07F80F80
07F80F80
3FFE0F80
3FFE0F80
3FFE7F80
3F3E7E00
3F3E7E00
3FFE7E00
3FFE7E00
3FFFFE00
07F9F000
07F9F000
0001F000
0001F000
000FF000
000FC000
000FC000
000FC000
000FC000
003FC000
003E0000
003E0000
003E7F80
003E7F80
01FFFFF0
01F9FFF0
01F9FFF0
01F9F3F0
01F9F3F0
07F9FFF0
07C1FFF0
07C1FFF0
07C07F80
07C07F80
07C07F80
00000000
00000000
00000000
00000000
00000000
00000000
00000000
00000000
00000000
00000000
00000000
00000000
ENDCHAR
STARTCHAR AMPERSAND
ENCODING 38
SWIDTH 1250 0
DWIDTH 30 0
BBX 30 60 0 -5
BITMAP
00000000
00000000
00000000
00000000
00000000
00000000
00000000
00000000
00000000
00000000
00000000
00000000
000FF000
000FF000
000FF000
003FFE00
003FFE00
01FFFF80
01FE7F80
01FE7F80
01F80F80
01F80F80
01F87F80
01F87E00
01F87E00
003FFE00
003FFE00
01FFFE00
01FFF000
01FFF000
07FFC000
07FFC000
3FFFF3F0
3FC1F3F0
3FC1F3F0
3F007FF0
3F007FF0
3F007FF0
3F007F80
3F007F80
3F007E00
3F007E00
3FFFFFF0
07FFFFF0
07FFFFF0
01FFC3F0
01FFC3F0
01FFC3F0
00000000
00000000
00000000
00000000
00000000
00000000
00000000
00000000
00000000
00000000
00000000
00000000
ENDCHAR
STARTCHAR APOSTROPHE
ENCODING 39
SWIDTH 1250 0
DWIDTH 30 0
BBX 30 60 0 -5
BITMAP
00000000
00000000
00000000
00000000
00000000
00000000
00000000
000FC000
000FC000
000FC000
003FF000
003FF000
003FF000
003FF000
003FF000
0001F000
0001F000
0001F000
0001F000
0001F000
000FC000
000FC000
003FC000
003E0000
003E0000
00000000
00000000
00000000
00000000
00000000
00000000
00000000
00000000
00000000
00000000
00000000
00000000
00000000
00000000
00000000
00000000
00000000
00000000
00000000
00000000
00000000
00000000
00000000
00000000
00000000
00000000
00000000
00000000
00000000
00000000
00000000
00000000
00000000
00000000
00000000
ENDCHAR
STARTCHAR LEFT PARENTHESIS
ENCODING 40
SWIDTH 1250 0
DWIDTH 30 0
BBX 30 60 0 -5
BITMAP
00000000
00000000
00000000
00000000
00000000
00000000
00000000
00000000
00000000
00000000
00000000
00000000
00007E00
00007E00
00007E00
0001F000
0001F000
000FF000
000FF000
000FF000
000FC000
000FC000
003FC000
003FC000
003FC000
003E0000
003E0000
003E0000
003E0000
003E0000
003E0000
003E0000
003E0000
003E0000
003E0000
003FC000
003FC000
003FC000
000FC000
000FC000
000FF000
000FF000
000FF000
0001F000
0001F000
00007E00
00007E00
00007E00
00000000
00000000
00000000
00000000
00000000
00000000
00000000
00000000
00000000
00000000
00000000
00000000
ENDCHAR
STARTCHAR RIGHT PARENTHESIS
ENCODING 41
SWIDTH 1250 0
DWIDTH 30 0
BBX 30 60 0 -5
BITMAP
00000000
00000000
00000000
00000000
00000000
00000000
00000000
00000000
00000000
00000000
00000000
00000000
01F80000
01F80000
01F80000
003E0000
003E0000
003FC000
003FC000
003FC000
000FC000
000FC000
000FF000
000FF000
000FF000
0001F000
0001F000
0001F000
0001F000
0001F000
0001F000
0001F000
0001F000
0001F000
0001F000
000FF000
000FF000
000FF000
000FC000
000FC000
003FC000
003FC000
003FC000
003E0000
003E0000
01F80000
01F80000
01F80000
00000000
00000000
00000000
00000000
00000000
00000000
00000000
00000000
00000000
00000000
00000000
00000000
ENDCHAR
STARTCHAR ASTERISK
ENCODING 42
SWIDTH 1250 0
DWIDTH 30 0
BBX 30 60 0 -5
BITMAP
00000000
00000000
00000000
00000000
00000000
00000000
00000000
00000000
00000000
00000000
00000000
00000000
00000000
00000000
00000000
00000000
00000000
000FC000
000FC000
000FC000
000FC000
000FC000
3F0FC3F0
3F0FC3F0
3F0FC3F0
3FCFCFF0
3FCFCFF0
3FFFFFF0
01FFFE00
01FFFE00
000FC000
000FC000
01FFFE00
01FFFE00
01FFFE00
3FCFCFF0
3FCFCFF0
3FCFCFF0
3F0FC3F0
3F0FC3F0
000FC000
000FC000
000FC000
000FC000
000FC000
00000000
00000000
00000000
00000000
00000000
00000000
00000000
00000000
00000000
00000000
00000000
00000000
00000000
00000000
00000000
ENDCHAR
STARTCHAR PLUS SIGN
ENCODING 43
SWIDTH 1250 0
DWIDTH 30 0
BBX 30 60 0 -5
BITMAP
00000000
00000000
00000000
00000000
00000000
00000000
00000000
00000000
00000000
00000000
00000000
00000000
00000000
00000000
00000000
00000000
00000000
00000000
00000000
00000000
000FC000
000FC000
000FC000
000FC000
000FC000
000FC000
000FC000
000FC000
000FC000
000FC000
3FFFFFF0
3FFFFFF0
3FFFFFF0
3FFFFFF0
3FFFFFF0
000FC000
000FC000
000FC000
000FC000
000FC000
000FC000
000FC000
000FC000
000FC000
000FC000
00000000
00000000
00000000
00000000
00000000
00000000
00000000
00000000
00000000
00000000
00000000
00000000
00000000
00000000
00000000
ENDCHAR
STARTCHAR COMMA
ENCODING 44
SWIDTH 1250 0
DWIDTH 30 0
BBX 30 60 0 -5
BITMAP
00000000
00000000
00000000
00000000
00000000
00000000
00000000
00000000
00000000
00000000
00000000
00000000
00000000
00000000
00000000
00000000
00000000
00000000
00000000
00000000
00000000
00000000
00000000
00000000
00000000
00000000
00000000
00000000
00000000
00000000
00000000
00000000
00000000
00000000
00000000
00000000
00000000
000FC000
000FC000
000FC000
003FF000
003FF000
003FF000
003FF000
003FF000
0001F000
0001F000
0001F000
0001F000
0001F000
000FC000
000FC000
003FC000
003E0000
003E0000
00000000
00000000
00000000
00000000
00000000
ENDCHAR
STARTCHAR HYPHEN, MINUS SIGN
ENCODING 45
SWIDTH 1250 0
DWIDTH 30 0
BBX 30 60 0 -5
BITMAP
00000000
00000000
00000000
00000000
00000000
00000000
00000000
00000000
00000000
00000000
00000000
00000000
00000000
00000000
00000000
00000000
00000000
00000000
00000000
00000000
00000000
00000000
00000000
00000000
00000000
00000000
00000000
00000000
00000000
00000000
3FFFFFF0
3FFFFFF0
3FFFFFF0
3FFFFFF0
3FFFFFF0
00000000
00000000
00000000
00000000
00000000
00000000
00000000
00000000
00000000
00000000
00000000
00000000
00000000
00000000
00000000
00000000
00000000
00000000
00000000
00000000
00000000
00000000
00000000
00000000
00000000
ENDCHAR
STARTCHAR FULL STOP
ENCODING 46
SWIDTH 1250 0
DWIDTH 30 0
BBX 30 60 0 -5
BITMAP
00000000
00000000
00000000
00000000
00000000
00000000
00000000
00000000
00000000
00000000
00000000
00000000
00000000
00000000
00000000
00000000
00000000
00000000
00000000
00000000
00000000
00000000
00000000
00000000
00000000
00000000
00000000
00000000
00000000
00000000
00000000
00000000
00000000
00000000
00000000
00000000
00000000
000FC000
000FC000
000FC000
003FF000
003FF000
003FF000
003FF000
003FF000
000FC000
000FC000
000FC000
00000000
00000000
00000000
00000000
00000000
00000000
00000000
00000000
00000000
00000000
00000000
00000000
ENDCHAR
STARTCHAR SOLIDUS
ENCODING 47
SWIDTH 1250 0
DWIDTH 30 0
BBX 30 60 0 -5
BITMAP
00000000
00000000
00000000
00000000
00000000
00000000
00000000
00000000
00000000
00000000
00000000
00000000
00000F80
00000F80
00000F80
00000F80
00000F80
00007F80
00007E00
00007E00
00007E00
00007E00
0001FE00
0001F000
0001F000
0001F000
0001F000
000FF000
000FC000
000FC000
000FC000
000FC000
003FC000
003E0000
003E0000
003E0000
003E0000
01FE0000
01F80000
01F80000
01F80000
01F80000
07F80000
07C00000
07C00000
07C00000
07C00000
07C00000
00000000
00000000
00000000
00000000
00000000
00000000
00000000
00000000
00000000
00000000
00000000
00000000
ENDCHAR
STARTCHAR DIGIT ZERO
ENCODING 48
SWIDTH 1250 0
DWIDTH 30 0
BBX 30 60 0 -5
BITMAP
00000000
00000000
00000000
00000000
00000000
00000000
00000000
00000000
00000000
00000000
00000000
00000000
003FF000
003FF000
003FF000
01FFFE00
01FFFE00
07FFFF80
07F87F80
07F87F80
07C00F80
07C00F80
07C07F80
07C07F80
07C07F80
07C1FF80
07C1FF80
07CFFF80
07CFCF80
07CFCF80
07FE0F80
07FE0F80
07FE0F80
07F80F80
07F80F80
07C00F80
07C00F80
07C00F80
07C00F80
07C00F80
07F87F80
07F87F80
07FFFF80
01FFFE00
01FFFE00
003FF000
003FF000
003FF000
00000000
00000000
00000000
00000000
00000000
00000000
00000000
00000000
00000000
00000000
00000000
00000000
ENDCHAR
STARTCHAR DIGIT ONE
ENCODING 49
SWIDTH 1250 0
DWIDTH 30 0
BBX 30 60 0 -5
BITMAP
00000000
00000000
00000000
00000000
00000000
00000000
00000000
00000000
00000000
00000000
00000000
00000000
000FC000
000FC000
000FC000
003FC000
003FC000
01FFC000
01FFC000
01FFC000
07CFC000
07CFC000
07CFC000
000FC000
000FC000
000FC000
000FC000
000FC000
000FC000
000FC000
000FC000
000FC000
000FC000
000FC000
000FC000
000FC000
000FC000
000FC000
000FC000
000FC000
000FC000
000FC000
07FFFF80
07FFFF80
07FFFF80
07FFFF80
07FFFF80
07FFFF80
00000000
00000000
00000000
00000000
00000000
00000000
00000000
00000000
00000000
00000000
00000000
00000000
ENDCHAR
STARTCHAR DIGIT TWO
ENCODING 50
SWIDTH 1250 0
DWIDTH 30 0
BBX 30 60 0 -5
BITMAP
00000000
00000000
00000000
00000000
00000000
00000000
00000000
00000000
00000000
00000000
00000000
00000000
003FFE00
003FFE00
003FFE00
01FFFF80
01FFFF80
07FFFFF0
07C00FF0
07C00FF0
07C003F0
07C003F0
07C003F0
000003F0
000003F0
00000F80
00000F80
00007F80
00007E00
00007E00
0001F000
0001F000
000FF000
000FC000
000FC000
003E0000
003E0000
01FE0000
01F80000
01F80000
07C00000
07C00000
07FFFFF0
07FFFFF0
07FFFFF0
07FFFFF0
07FFFFF0
07FFFFF0
00000000
00000000
00000000
00000000
00000000
00000000
00000000
00000000
00000000
00000000
00000000
00000000
ENDCHAR
STARTCHAR DIGIT THREE
ENCODING 51
SWIDTH 1250 0
DWIDTH 30 0
BBX 30 60 0 -5
BITMAP
00000000
00000000
00000000
00000000
00000000
00000000
00000000
00000000
00000000
00000000
00000000
00000000
003FFE00
003FFE00
003FFE00
01FFFF80
01FFFF80
07FFFFF0
07C00FF0
07C00FF0
07C003F0
07C003F0
07C003F0
000003F0
000003F0
00000F80
00000F80
000FFF80
000FFE00
000FFE00
000FFF80
000FFF80
000FFFF0
000003F0
000003F0
000003F0
000003F0
07C003F0
07C003F0
07C003F0
07C00FF0
07C00FF0
07FFFFF0
01FFFF80
01FFFF80
003FFE00
003FFE00
003FFE00
00000000
00000000
00000000
00000000
00000000
00000000
00000000
00000000
00000000
00000000
00000000
00000000
ENDCHAR
STARTCHAR DIGIT FOUR
ENCODING 52
SWIDTH 1250 0
DWIDTH 30 0
BBX 30 60 0 -5
BITMAP
00000000
00000000
00000000
00000000
00000000
00000000
00000000
00000000
00000000
00000000
00000000
00000000
0001F000
0001F000
0001F000
0001F000
0001F000
000FF000
000FC000
000FC000
000FC000
000FC000
003FFE00
003E7E00
003E7E00
003E7E00
003E7E00
01FE7E00
01F87E00
01F87E00
01F87E00
01F87E00
07F87E00
07C07E00
07C07E00
07FFFFF0
07FFFFF0
07FFFFF0
07FFFFF0
07FFFFF0
00007E00
00007E00
00007E00
00007E00
00007E00
00007E00
00007E00
00007E00
00000000
00000000
00000000
00000000
00000000
00000000
00000000
00000000
00000000
00000000
00000000
00000000
ENDCHAR
STARTCHAR DIGIT FIVE
ENCODING 53
SWIDTH 1250 0
DWIDTH 30 0
BBX 30 60 0 -5
BITMAP
00000000
00000000
00000000
00000000
00000000
00000000
00000000
00000000
00000000
00000000
00000000
00000000
07FFFF80
07FFFF80
07FFFF80
07FFFF80
07FFFF80
07FFFF80
07C00000
07C00000
07C00000
07C00000
07C00000
07C00000
07C00000
07FFFE00
07FFFE00
07FFFF80
07FFFF80
07FFFF80
00000FF0
00000FF0
00000FF0
000003F0
000003F0
000003F0
000003F0
07C003F0
07C003F0
07C003F0
07C00FF0
07C00FF0
07FFFFF0
01FFFF80
01FFFF80
003FFE00
003FFE00
003FFE00
00000000
00000000
00000000
00000000
00000000
00000000
00000000
00000000
00000000
00000000
00000000
00000000
ENDCHAR
STARTCHAR DIGIT SIX
ENCODING 54
SWIDTH 1250 0
DWIDTH 30 0
BBX 30 60 0 -5
BITMAP
00000000
00000000
00000000
00000000
00000000
00000000
00000000
00000000
00000000
00000000
00000000
00000000
003FFE00
003FFE00
003FFE00
01FFFF80
01FFFF80
07FFFFF0
07F803F0
07F803F0
07C003F0
07C003F0
07C003F0
07C00000
07C00000
07CFFE00
07CFFE00
07FFFF80
07FFFF80
07FFFF80
07F80FF0
07F80FF0
07F80FF0
07C003F0
07C003F0
07C003F0
07C003F0
07C003F0
07C003F0
07C003F0
07F80FF0
07F80FF0
07FFFFF0
01FFFF80
01FFFF80
003FFE00
003FFE00
003FFE00
00000000
00000000
00000000
00000000
00000000
00000000
00000000
00000000
00000000
00000000
00000000
00000000
ENDCHAR
STARTCHAR DIGIT SEVEN
ENCODING 55
SWIDTH 1250 0
DWIDTH 30 0
BBX 30 60 0 -5
BITMAP
00000000
00000000
00000000
00000000
00000000
00000000
00000000
00000000
00000000
00000000
00000000
00000000
07FFFFF0
07FFFFF0
07FFFFF0
07FFFFF0
07FFFFF0
07FFFFF0
00000F80
00000F80
00000F80
00000F80
00007F80
00007E00
00007E00
00007E00
00007E00
0001FE00
0001F000
0001F000
0001F000
0001F000
000FF000
000FC000
000FC000
000FC000
000FC000
003FC000
003E0000
003E0000
003E0000
003E0000
01FE0000
01F80000
01F80000
01F80000
01F80000
01F80000
00000000
00000000
00000000
00000000
00000000
00000000
00000000
00000000
00000000
00000000
00000000
00000000
ENDCHAR
STARTCHAR DIGIT EIGHT
ENCODING 56
SWIDTH 1250 0
DWIDTH 30 0
BBX 30 60 0 -5
BITMAP
00000000
00000000
00000000
00000000
00000000
00000000
00000000
00000000
00000000
00000000
00000000
00000000
003FF000
003FF000
003FF000
01FFFE00
01FFFE00
07FFFF80
07C00F80
07C00F80
07C00F80
07C00F80
07C00F80
07C00F80
07C00F80
01FFFE00
01FFFE00
01FFFE00
01FFFE00
01FFFE00
07F87F80
07F87F80
3FF87FF0
3FC00FF0
3FC00FF0
3F0003F0
3F0003F0
3F0003F0
3F0003F0
3F0003F0
3FC00FF0
3FC00FF0
3FFFFFF0
07FFFF80
07FFFF80
01FFFE00
01FFFE00
01FFFE00
00000000
00000000
00000000
00000000
00000000
00000000
00000000
00000000
00000000
00000000
00000000
00000000
ENDCHAR
STARTCHAR DIGIT NINE
ENCODING 57
SWIDTH 1250 0
DWIDTH 30 0
BBX 30 60 0 -5
BITMAP
00000000
00000000
00000000
00000000
00000000
00000000
00000000
00000000
00000000
00000000
00000000
00000000
003FFE00
003FFE00
003FFE00
01FFFF80
01FFFF80
07FFFFF0
07F80FF0
07F80FF0
07C003F0
07C003F0
07C003F0
07C003F0
07C003F0
07F80FF0
07F80FF0
07FFFFF0
01FFFFF0
01FFFFF0
003FF3F0
003FF3F0
003FF3F0
000003F0
000003F0
000003F0
000003F0
07C003F0
07C003F0
07C003F0
07C00FF0
07C00FF0
07FFFFF0
01FFFF80
01FFFF80
003FFE00
003FFE00
003FFE00
00000000
00000000
00000000
00000000
00000000
00000000
00000000
00000000
00000000
00000000
00000000
00000000
ENDCHAR
STARTCHAR COLON
ENCODING 58
SWIDTH 1250 0
DWIDTH 30 0
BBX 30 60 0 -5
BITMAP
00000000
00000000
00000000
00000000
00000000
00000000
00000000
00000000
00000000
00000000
00000000
00000000
00000000
00000000
00000000
00000000
00000000
00000000
00000000
00000000
000FC000
000FC000
003FF000
003FF000
003FF000
003FF000
003FF000
003FF000
000FC000
000FC000
00000000
00000000
00000000
00000000
00000000
00000000
00000000
000FC000
000FC000
000FC000
003FF000
003FF000
003FF000
003FF000
003FF000
000FC000
000FC000
000FC000
00000000
00000000
00000000
00000000
00000000
00000000
00000000
00000000
00000000
00000000
00000000
00000000
ENDCHAR
STARTCHAR SEMICOLON
ENCODING 59
SWIDTH 1250 0
DWIDTH 30 0
BBX 30 60 0 -5
BITMAP
00000000
00000000
00000000
00000000
00000000
00000000
00000000
00000000
00000000
00000000
00000000
00000000
00000000
00000000
00000000
00000000
00000000
00000000
00000000
00000000
000FC000
000FC000
003FF000
003FF000
003FF000
003FF000
003FF000
003FF000
000FC000
000FC000
00000000
00000000
00000000
00000000
00000000
00000000
00000000
000FC000
000FC000
000FC000
003FF000
003FF000
003FF000
003FF000
003FF000
0001F000
0001F000
0001F000
0001F000
0001F000
000FC000
000FC000
003FC000
003E0000
003E0000
00000000
00000000
00000000
00000000
00000000
ENDCHAR
STARTCHAR LESS-THAN SIGN
ENCODING 60
SWIDTH 1250 0
DWIDTH 30 0
BBX 30 60 0 -5
BITMAP
00000000
00000000
00000000
00000000
00000000
00000000
00000000
00000000
00000000
00000000
00000000
00000000
00000000
00000000
00000000
00000000
00000000
00000000
00000000
00000000
000003F0
000003F0
00007FF0
00007F80
00007F80
000FF000
000FF000
01FFF000
01FFC000
01FFC000
3FF80000
3FF80000
3FF80000
3FF80000
3FF80000
01FFC000
01FFC000
01FFFE00
000FFE00
000FFE00
00007F80
00007F80
00007FF0
000003F0
000003F0
00000000
00000000
00000000
00000000
00000000
00000000
00000000
00000000
00000000
00000000
00000000
00000000
00000000
00000000
00000000
ENDCHAR
STARTCHAR EQUALS SIGN
ENCODING 61
SWIDTH 1250 0
DWIDTH 30 0
BBX 30 60 0 -5
BITMAP
00000000
00000000
00000000
00000000
00000000
00000000
00000000
00000000
00000000
00000000
00000000
00000000
00000000
00000000
00000000
00000000
00000000
00000000
00000000
00000000
00000000
00000000
00000000
00000000
00000000
3FFFFFF0
3FFFFFF0
3FFFFFF0
3FFFFFF0
3FFFFFF0
00000000
00000000
00000000
00000000
00000000
3FFFFFF0
3FFFFFF0
3FFFFFF0
3FFFFFF0
3FFFFFF0
00000000
00000000
00000000
00000000
00000000
00000000
00000000
00000000
00000000
00000000
00000000
00000000
00000000
00000000
00000000
00000000
00000000
00000000
00000000
00000000
ENDCHAR
STARTCHAR GREATER-THAN SIGN
ENCODING 62
SWIDTH 1250 0
DWIDTH 30 0
BBX 30 60 0 -5
BITMAP
00000000
00000000
00000000
00000000
00000000
00000000
00000000
00000000
00000000
00000000
00000000
00000000
00000000
00000000
00000000
00000000
00000000
00000000
00000000
00000000
3F000000
3F000000
3FF80000
07F80000
07F80000
003FC000
003FC000
003FFE00
000FFE00
000FFE00
00007FF0
00007FF0
00007FF0
00007FF0
00007FF0
000FFE00
000FFE00
003FFE00
003FC000
003FC000
07F80000
07F80000
3FF80000
3F000000
3F000000
00000000
00000000
00000000
00000000
00000000
00000000
00000000
00000000
00000000
00000000
00000000
00000000
00000000
00000000
00000000
ENDCHAR
STARTCHAR QUESTION MARK
ENCODING 63
SWIDTH 1250 0
DWIDTH 30 0
BBX 30 60 0 -5
BITMAP
00000000
00000000
00000000
00000000
00000000
00000000
00000000
00000000
00000000
00000000
00000000
00000000
003FF000
003FF000
003FF000
01FFFE00
01FFFE00
07FFFF80
07F87F80
07F87F80
07000F80
07000F80
07000F80
00000F80
00000F80
00007E00
00007E00
0001FE00
0001F000
0001F000
000FC000
000FC000
000FC000
000FC000
000FC000
000FC000
000FC000
000FC000
00000000
00000000
00000000
00000000
000FC000
000FC000
000FC000
003FF000
003FF000
003FF000
000FC000
000FC000
00000000
00000000
00000000
00000000
00000000
00000000
00000000
00000000
00000000
00000000
ENDCHAR
STARTCHAR COMMERCIAL AT
ENCODING 64
SWIDTH 1250 0
DWIDTH 30 0
BBX 30 60 0 -5
BITMAP
00000000
00000000
00000000
00000000
00000000
00000000
00000000
00000000
00000000
00000000
00000000
00000000
003FFE00
003FFE00
003FFE00
01FFFF80
01FFFF80
07FFFFF0
07F803F0
07F803F0
07C003F0
07C003F0
07C1FFF0
07C1FFF0
07C1FFF0
07CFFFF0
07CFFFF0
07CFFFF0
07CFC3F0
07CFC3F0
07CFC3F0
07CFC3F0
07CFC3F0
07CFC3F0
07CFC3F0
07CFFFF0
07CFFFF0
07CFFFF0
07C1FF80
07C1FF80
07F80000
07F80000
07FFFFF0
01FFFFF0
01FFFFF0
003FFFF0
003FFFF0
003FFFF0
00000000
00000000
00000000
00000000
00000000
00000000
00000000
00000000
00000000
00000000
00000000
00000000
ENDCHAR
STARTCHAR CAPITAL LETTER A
ENCODING 65
SWIDTH 1250 0
DWIDTH 30 0
BBX 30 60 0 -5
BITMAP
00000000
00000000
00000000
00000000
00000000
00000000
00000000
00000000
00000000
00000000
00000000
00000000
003FFE00
003FFE00
003FFE00
01FFFF80
01FFFF80
07FFFFF0
07F80FF0
07F80FF0
07C003F0
07C003F0
07C003F0
07C003F0
07C003F0
07C003F0
07C003F0
07FFFFF0
07FFFFF0
07FFFFF0
07FFFFF0
07FFFFF0
07FFFFF0
07C003F0
07C003F0
07C003F0
07C003F0
07C003F0
07C003F0
07C003F0
07C003F0
07C003F0
07C003F0
07C003F0
07C003F0
07C003F0
07C003F0
07C003F0
00000000
00000000
00000000
00000000
00000000
00000000
00000000
00000000
00000000
00000000
00000000
00000000
ENDCHAR
STARTCHAR CAPITAL LETTER B
ENCODING 66
SWIDTH 1250 0
DWIDTH 30 0
BBX 30 60 0 -5
BITMAP
00000000
00000000
00000000
00000000
00000000
00000000
00000000
00000000
00000000
00000000
00000000
00000000
07FFF000
07FFF000
07FFF000
07FFFE00
07FFFE00
07FFFF80
07C07F80
07C07F80
07C00F80
07C00F80
07C00F80
07C00F80
07C00F80
07C07E00
07C07E00
07FFFE00
07FFFE00
07FFFE00
07FFFF80
07FFFF80
07FFFF80
07C00F80
07C00F80
07C003F0
07C003F0
07C003F0
07C003F0
07C003F0
07C00FF0
07C00FF0
07FFFFF0
07FFFF80
07FFFF80
07FFFE00
07FFFE00
07FFFE00
00000000
00000000
00000000
00000000
00000000
00000000
00000000
00000000
00000000
00000000
00000000
00000000
ENDCHAR
STARTCHAR CAPITAL LETTER C
ENCODING 67
SWIDTH 1250 0
DWIDTH 30 0
BBX 30 60 0 -5
BITMAP
00000000
00000000
00000000
00000000
00000000
00000000
00000000
00000000
00000000
00000000
00000000
00000000
003FFE00
003FFE00
003FFE00
01FFFF80
01FFFF80
07FFFFF0
07F80FF0
07F80FF0
07C003F0
07C003F0
07C003F0
07C00000
07C00000
07C00000
07C00000
07C00000
07C00000
07C00000
07C00000
07C00000
07C00000
07C00000
07C00000
07C00000
07C00000
07C003F0
07C003F0
07C003F0
07F80FF0
07F80FF0
07FFFFF0
01FFFF80
01FFFF80
003FFE00
003FFE00
003FFE00
00000000
00000000
00000000
00000000
00000000
00000000
00000000
00000000
00000000
00000000
00000000
00000000
ENDCHAR
STARTCHAR CAPITAL LETTER D
ENCODING 68
SWIDTH 1250 0
DWIDTH 30 0
BBX 30 60 0 -5
BITMAP
00000000
00000000
00000000
00000000
00000000
00000000
00000000
00000000
00000000
00000000
00000000
00000000
07FFFE00
07FFFE00
07FFFE00
07FFFF80
07FFFF80
07FFFFF0
07C00FF0
07C00FF0
07C003F0
07C003F0
07C003F0
07C003F0
07C003F0
07C003F0
07C003F0
07C003F0
07C003F0
07C003F0
07C003F0
07C003F0
07C003F0
07C003F0
07C003F0
07C003F0
07C003F0
07C003F0
07C003F0
07C003F0
07C00FF0
07C00FF0
07FFFFF0
07FFFF80
07FFFF80
07FFFE00
07FFFE00
07FFFE00
00000000
00000000
00000000
00000000
00000000
00000000
00000000
00000000
00000000
00000000
00000000
00000000
ENDCHAR
STARTCHAR CAPITAL LETTER E
ENCODING 69
SWIDTH 1250 0
DWIDTH 30 0
BBX 30 60 0 -5
BITMAP
00000000
00000000
00000000
00000000
00000000
00000000
00000000
00000000
00000000
00000000
00000000
00000000
07FFFFF0
07FFFFF0
07FFFFF0
07FFFFF0
07FFFFF0
07FFFFF0
07C00000
07C00000
07C00000
07C00000
07C00000
07C00000
07C00000
07C00000
07C00000
07FFFE00
07FFFE00
07FFFE00
07FFFE00
07FFFE00
07FFFE00
07C00000
07C00000
07C00000
07C00000
07C00000
07C00000
07C00000
07C00000
07C00000
07FFFFF0
07FFFFF0
07FFFFF0
07FFFFF0
07FFFFF0
07FFFFF0
00000000
00000000
00000000
00000000
00000000
00000000
00000000
00000000
00000000
00000000
00000000
00000000
ENDCHAR
STARTCHAR CAPITAL LETTER F
ENCODING 70
SWIDTH 1250 0
DWIDTH 30 0
BBX 30 60 0 -5
BITMAP
00000000
00000000
00000000
00000000
00000000
00000000
00000000
00000000
00000000
00000000
00000000
00000000
07FFFFF0
07FFFFF0
07FFFFF0
07FFFFF0
07FFFFF0
07FFFFF0
07C00000
07C00000
07C00000
07C00000
07C00000
07C00000
07C00000
07C00000
07C00000
07FFFE00
07FFFE00
07FFFE00
07FFFE00
07FFFE00
07FFFE00
07C00000
07C00000
07C00000
07C00000
07C00000
07C00000
07C00000
07C00000
07C00000
07C00000
07C00000
07C00000
07C00000
07C00000
07C00000
00000000
00000000
00000000
00000000
00000000
00000000
00000000
00000000
00000000
00000000
00000000
00000000
ENDCHAR
STARTCHAR CAPITAL LETTER G
ENCODING 71
SWIDTH 1250 0
DWIDTH 30 0
BBX 30 60 0 -5
BITMAP
00000000
00000000
00000000
00000000
00000000
00000000
00000000
00000000
00000000
00000000
00000000
00000000
003FFE00
003FFE00
003FFE00
01FFFF80
01FFFF80
07FFFFF0
07F80FF0
07F80FF0
07C003F0
07C003F0
07C003F0
07C00000
07C00000
07C00000
07C00000
07C00000
07C00000
07C00000
07C07FF0
07C07FF0
07C07FF0
07C07FF0
07C07FF0
07C003F0
07C003F0
07C003F0
07C003F0
07C003F0
07F80FF0
07F80FF0
07FFFFF0
01FFFF80
01FFFF80
003FFE00
003FFE00
003FFE00
00000000
00000000
00000000
00000000
00000000
00000000
00000000
00000000
00000000
00000000
00000000
00000000
ENDCHAR
STARTCHAR CAPITAL LETTER H
ENCODING 72
SWIDTH 1250 0
DWIDTH 30 0
BBX 30 60 0 -5
BITMAP
00000000
00000000
00000000
00000000
00000000
00000000
00000000
00000000
00000000
00000000
00000000
00000000
07C003F0
07C003F0
07C003F0
07C003F0
07C003F0
07C003F0
07C003F0
07C003F0
07C003F0
07C003F0
07C003F0
07C003F0
07C003F0
07C003F0
07C003F0
07FFFFF0
07FFFFF0
07FFFFF0
07FFFFF0
07FFFFF0
07FFFFF0
07C003F0
07C003F0
07C003F0
07C003F0
07C003F0
07C003F0
07C003F0
07C003F0
07C003F0
07C003F0
07C003F0
07C003F0
07C003F0
07C003F0
07C003F0
00000000
00000000
00000000
00000000
00000000
00000000
00000000
00000000
00000000
00000000
00000000
00000000
ENDCHAR
STARTCHAR CAPITAL LETTER I
ENCODING 73
SWIDTH 1250 0
DWIDTH 30 0
BBX 30 60 0 -5
BITMAP
00000000
00000000
00000000
00000000
00000000
00000000
00000000
00000000
00000000
00000000
00000000
00000000
01FFFE00
01FFFE00
01FFFE00
01FFFE00
01FFFE00
01FFFE00
000FC000
000FC000
000FC000
000FC000
000FC000
000FC000
000FC000
000FC000
000FC000
000FC000
000FC000
000FC000
000FC000
000FC000
000FC000
000FC000
000FC000
000FC000
000FC000
000FC000
000FC000
000FC000
000FC000
000FC000
01FFFE00
01FFFE00
01FFFE00
01FFFE00
01FFFE00
01FFFE00
00000000
00000000
00000000
00000000
00000000
00000000
00000000
00000000
00000000
00000000
00000000
00000000
ENDCHAR
STARTCHAR CAPITAL LETTER J
ENCODING 74
SWIDTH 1250 0
DWIDTH 30 0
BBX 30 60 0 -5
BITMAP
00000000
00000000
00000000
00000000
00000000
00000000
00000000
00000000
00000000
00000000
00000000
00000000
000003F0
000003F0
000003F0
000003F0
000003F0
000003F0
000003F0
000003F0
000003F0
000003F0
000003F0
000003F0
000003F0
000003F0
000003F0
000003F0
000003F0
000003F0
000003F0
000003F0
000003F0
000003F0
000003F0
000003F0
000003F0
07C003F0
07C003F0
07C003F0
07C00FF0
07C00FF0
07FFFFF0
01FFFF80
01FFFF80
003FFE00
003FFE00
003FFE00
00000000
00000000
00000000
00000000
00000000
00000000
00000000
00000000
00000000
00000000
00000000
00000000
ENDCHAR
STARTCHAR CAPITAL LETTER K
ENCODING 75
SWIDTH 1250 0
DWIDTH 30 0
BBX 30 60 0 -5
BITMAP
00000000
00000000
00000000
00000000
00000000
00000000
00000000
00000000
00000000
00000000
00000000
00000000
07C003F0
07C003F0
07C003F0
07C00F80
07C00F80
07C07F80
07C07E00
07C07E00
07C1F000
07C1F000
07CFF000
07CFC000
07CFC000
07FE0000
07FE0000
07FE0000
07F80000
07F80000
07FE0000
07FE0000
07FFC000
07CFC000
07CFC000
07C1F000
07C1F000
07C1FE00
07C07E00
07C07E00
07C00F80
07C00F80
07C00FF0
07C003F0
07C003F0
07C00070
07C00070
07C00070
00000000
00000000
00000000
00000000
00000000
00000000
00000000
00000000
00000000
00000000
00000000
00000000
ENDCHAR
STARTCHAR CAPITAL LETTER L
ENCODING 76
SWIDTH 1250 0
DWIDTH 30 0
BBX 30 60 0 -5
BITMAP
00000000
00000000
00000000
00000000
00000000
00000000
00000000
00000000
00000000
00000000
00000000
00000000
07C00000
07C00000
07C00000
07C00000
07C00000
07C00000
07C00000
07C00000
07C00000
07C00000
07C00000
07C00000
07C00000
07C00000
07C00000
07C00000
07C00000
07C00000
07C00000
07C00000
07C00000
07C00000
07C00000
07C00000
07C00000
07C00000
07C00000
07C00000
07C00000
07C00000
07FFFFF0
07FFFFF0
07FFFFF0
07FFFFF0
07FFFFF0
07FFFFF0
00000000
00000000
00000000
00000000
00000000
00000000
00000000
00000000
00000000
00000000
00000000
00000000
ENDCHAR
STARTCHAR CAPITAL LETTER M
ENCODING 77
SWIDTH 1250 0
DWIDTH 30 0
BBX 30 60 0 -5
BITMAP
00000000
00000000
00000000
00000000
00000000
00000000
00000000
00000000
00000000
00000000
00000000
00000000
07C003F0
07C003F0
07C003F0
07F80FF0
07F80FF0
07F80FF0
07F80FF0
07F80FF0
07FE7FF0
07FE7FF0
07FFFFF0
07FFFFF0
07FFFFF0
07CFF3F0
07CFF3F0
07CFF3F0
07CFF3F0
07CFF3F0
07C1C3F0
07C1C3F0
07C1C3F0
07C003F0
07C003F0
07C003F0
07C003F0
07C003F0
07C003F0
07C003F0
07C003F0
07C003F0
07C003F0
07C003F0
07C003F0
07C003F0
07C003F0
07C003F0
00000000
00000000
00000000
00000000
00000000
00000000
00000000
00000000
00000000
00000000
00000000
00000000
ENDCHAR
STARTCHAR CAPITAL LETTER N
ENCODING 78
SWIDTH 1250 0
DWIDTH 30 0
BBX 30 60 0 -5
BITMAP
00000000
00000000
00000000
00000000
00000000
00000000
00000000
00000000
00000000
00000000
00000000
00000000
07C003F0
07C003F0
07C003F0
07F803F0
07F803F0
07F803F0
07F803F0
07F803F0
07FE03F0
07FE03F0
07FE03F0
07FE03F0
07FE03F0
07CFC3F0
07CFC3F0
07CFC3F0
07CFC3F0
07CFC3F0
07C1F3F0
07C1F3F0
07C1F3F0
07C1F3F0
07C1F3F0
07C07FF0
07C07FF0
07C07FF0
07C07FF0
07C07FF0
07C00FF0
07C00FF0
07C00FF0
07C00FF0
07C00FF0
07C003F0
07C003F0
07C003F0
00000000
00000000
00000000
00000000
00000000
00000000
00000000
00000000
00000000
00000000
00000000
00000000
ENDCHAR
STARTCHAR CAPITAL LETTER O
ENCODING 79
SWIDTH 1250 0
DWIDTH 30 0
BBX 30 60 0 -5
BITMAP
00000000
00000000
00000000
00000000
00000000
00000000
00000000
00000000
00000000
00000000
00000000
00000000
003FFE00
003FFE00
003FFE00
01FFFF80
01FFFF80
07FFFFF0
07F80FF0
07F80FF0
07C003F0
07C003F0
07C003F0
07C003F0
07C003F0
07C003F0
07C003F0
07C003F0
07C003F0
07C003F0
07C003F0
07C003F0
07C003F0
07C003F0
07C003F0
07C003F0
07C003F0
07C003F0
07C003F0
07C003F0
07F80FF0
07F80FF0
07FFFFF0
01FFFF80
01FFFF80
003FFE00
003FFE00
003FFE00
00000000
00000000
00000000
00000000
00000000
00000000
00000000
00000000
00000000
00000000
00000000
00000000
ENDCHAR
STARTCHAR CAPITAL LETTER P
ENCODING 80
SWIDTH 1250 0
DWIDTH 30 0
BBX 30 60 0 -5
BITMAP
00000000
00000000
00000000
00000000
00000000
00000000
00000000
00000000
00000000
00000000
00000000
00000000
07FFFE00
07FFFE00
07FFFE00
07FFFF80
07FFFF80
07FFFFF0
07C00FF0
07C00FF0
07C003F0
07C003F0
07C003F0
07C003F0
07C003F0
07C00FF0
07C00FF0
07FFFFF0
07FFFF80
07FFFF80
07FFFE00
07FFFE00
07FFFE00
07C00000
07C00000
07C00000
07C00000
07C00000
07C00000
07C00000
07C00000
07C00000
07C00000
07C00000
07C00000
07C00000
07C00000
07C00000
00000000
00000000
00000000
00000000
00000000
00000000
00000000
00000000
00000000
00000000
00000000
00000000
ENDCHAR
STARTCHAR CAPITAL LETTER Q
ENCODING 81
SWIDTH 1250 0
DWIDTH 30 0
BBX 30 60 0 -5
BITMAP
00000000
00000000
00000000
00000000
00000000
00000000
00000000
00000000
00000000
00000000
00000000
00000000
003FFE00
003FFE00
003FFE00
01FFFF80
01FFFF80
07FFFFF0
07F80FF0
07F80FF0
07C003F0
07C003F0
07C003F0
07C003F0
07C003F0
07C003F0
07C003F0
07C003F0
07C003F0
07C003F0
07C003F0
07C003F0
07C003F0
07C003F0
07C003F0
07C003F0
07C003F0
07C07FF0
07C07FF0
07C07FF0
07F87FF0
07F87FF0
07FFFFF0
01FFFF80
01FFFF80
003FFFFC
003FFFFC
003FFFFC
0000007C
0000007C
00000000
00000000
00000000
00000000
00000000
00000000
00000000
00000000
00000000
00000000
ENDCHAR
STARTCHAR CAPITAL LETTER R
ENCODING 82
SWIDTH 1250 0
DWIDTH 30 0
BBX 30 60 0 -5
BITMAP
00000000
00000000
00000000
00000000
00000000
00000000
00000000
00000000
00000000
00000000
00000000
00000000
07FFFE00
07FFFE00
07FFFE00
07FFFF80
07FFFF80
07FFFFF0
07C00FF0
07C00FF0
07C003F0
07C003F0
07C003F0
07C003F0
07C003F0
07C00FF0
07C00FF0
07FFFFF0
07FFFF80
07FFFF80
07FFFE00
07FFFE00
07FFFE00
07C07E00
07C07E00
07C07E00
07C07E00
07C07F80
07C00F80
07C00F80
07C00F80
07C00F80
07C00FF0
07C003F0
07C003F0
07C003F0
07C003F0
07C003F0
00000000
00000000
00000000
00000000
00000000
00000000
00000000
00000000
00000000
00000000
00000000
00000000
ENDCHAR
STARTCHAR CAPITAL LETTER S
ENCODING 83
SWIDTH 1250 0
DWIDTH 30 0
BBX 30 60 0 -5
BITMAP
00000000
00000000
00000000
00000000
00000000
00000000
00000000
00000000
00000000
00000000
00000000
00000000
003FFE00
003FFE00
003FFE00
01FFFF80
01FFFF80
07FFFFF0
07C00FF0
07C00FF0
07C003F0
07C003F0
07C003F0
07C00000
07C00000
07F80000
07F80000
07FFFE00
01FFFE00
01FFFE00
003FFF80
003FFF80
003FFFF0
00000FF0
00000FF0
000003F0
000003F0
07C003F0
07C003F0
07C003F0
07C00FF0
07C00FF0
07FFFFF0
07FFFF80
07FFFF80
01FFFE00
01FFFE00
01FFFE00
00000000
00000000
00000000
00000000
00000000
00000000
00000000
00000000
00000000
00000000
00000000
00000000
ENDCHAR
STARTCHAR CAPITAL LETTER T
ENCODING 84
SWIDTH 1250 0
DWIDTH 30 0
BBX 30 60 0 -5
BITMAP
00000000
00000000
00000000
00000000
00000000
00000000
00000000
00000000
00000000
00000000
00000000
00000000
3FFFFFF0
3FFFFFF0
3FFFFFF0
3FFFFFF0
3FFFFFF0
3FFFFFF0
000FC000
000FC000
000FC000
000FC000
000FC000
000FC000
000FC000
000FC000
000FC000
000FC000
000FC000
000FC000
000FC000
000FC000
000FC000
000FC000
000FC000
000FC000
000FC000
000FC000
000FC000
000FC000
000FC000
000FC000
000FC000
000FC000
000FC000
000FC000
000FC000
000FC000
00000000
00000000
00000000
00000000
00000000
00000000
00000000
00000000
00000000
00000000
00000000
00000000
ENDCHAR
STARTCHAR CAPITAL LETTER U
ENCODING 85
SWIDTH 1250 0
DWIDTH 30 0
BBX 30 60 0 -5
BITMAP
00000000
00000000
00000000
00000000
00000000
00000000
00000000
00000000
00000000
00000000
00000000
00000000
07C003F0
07C003F0
07C003F0
07C003F0
07C003F0
07C003F0
07C003F0
07C003F0
07C003F0
07C003F0
07C003F0
07C003F0
07C003F0
07C003F0
07C003F0
07C003F0
07C003F0
07C003F0
07C003F0
07C003F0
07C003F0
07C003F0
07C003F0
07C003F0
07C003F0
07C003F0
07C003F0
07C003F0
07F80FF0
07F80FF0
07FFFFF0
01FFFF80
01FFFF80
003FFE00
003FFE00
003FFE00
00000000
00000000
00000000
00000000
00000000
00000000
00000000
00000000
00000000
00000000
00000000
00000000
ENDCHAR
STARTCHAR CAPITAL LETTER V
ENCODING 86
SWIDTH 1250 0
DWIDTH 30 0
BBX 30 60 0 -5
BITMAP
00000000
00000000
00000000
00000000
00000000
00000000
00000000
00000000
00000000
00000000
00000000
00000000
3F0003F0
3F0003F0
3F0003F0
3F0003F0
3F0003F0
3F0003F0
3F0003F0
3F0003F0
07C00F80
07C00F80
07C00F80
07C00F80
07C00F80
07C00F80
07C00F80
07F87F80
01F87E00
01F87E00
01F87E00
01F87E00
01F87E00
01F87E00
01F87E00
00387000
00387000
003FF000
003FF000
003FF000
003FF000
003FF000
003FF000
000FC000
000FC000
000FC000
000FC000
000FC000
00000000
00000000
00000000
00000000
00000000
00000000
00000000
00000000
00000000
00000000
00000000
00000000
ENDCHAR
STARTCHAR CAPITAL LETTER W
ENCODING 87
SWIDTH 1250 0
DWIDTH 30 0
BBX 30 60 0 -5
BITMAP
00000000
00000000
00000000
00000000
00000000
00000000
00000000
00000000
00000000
00000000
00000000
00000000
07C003F0
07C003F0
07C003F0
07C003F0
07C003F0
07C003F0
07C003F0
07C003F0
07C003F0
07C003F0
07C003F0
07C003F0
07C003F0
07C003F0
07C003F0
07C1C3F0
07C1C3F0
07C1C3F0
07CFF3F0
07CFF3F0
07CFF3F0
07CFF3F0
07CFF3F0
07FE7FF0
07FE7FF0
07FE7FF0
07FE7FF0
07FE7FF0
07F80FF0
07F80FF0
07F80FF0
07F80FF0
07F80FF0
07C003F0
07C003F0
07C003F0
00000000
00000000
00000000
00000000
00000000
00000000
00000000
00000000
00000000
00000000
00000000
00000000
ENDCHAR
STARTCHAR CAPITAL LETTER X
ENCODING 88
SWIDTH 1250 0
DWIDTH 30 0
BBX 30 60 0 -5
BITMAP
00000000
00000000
00000000
00000000
00000000
00000000
00000000
00000000
00000000
00000000
00000000
00000000
07C003F0
07C003F0
07C003F0
07C003F0
07C003F0
07F80FF0
01F80F80
01F80F80
01F80F80
01F80F80
01FE7F80
003E7E00
003E7E00
003E7E00
003E7E00
003FFE00
000FF000
000FF000
000FF000
000FF000
003FFE00
003E7E00
003E7E00
003E7E00
003E7E00
01FE7F80
01F80F80
01F80F80
01F80F80
01F80F80
07F80FF0
07C003F0
07C003F0
07C003F0
07C003F0
07C003F0
00000000
00000000
00000000
00000000
00000000
00000000
00000000
00000000
00000000
00000000
00000000
00000000
ENDCHAR
STARTCHAR CAPITAL LETTER Y
ENCODING 89
SWIDTH 1250 0
DWIDTH 30 0
BBX 30 60 0 -5
BITMAP
00000000
00000000
00000000
00000000
00000000
00000000
00000000
00000000
00000000
00000000
00000000
00000000
3F0003F0
3F0003F0
3F0003F0
3F0003F0
3F0003F0
3FC00FF0
07C00F80
07C00F80
07C00F80
07C00F80
07F87F80
01F87E00
01F87E00
01FFFE00
01FFFE00
01FFFE00
003FF000
003FF000
000FC000
000FC000
000FC000
000FC000
000FC000
000FC000
000FC000
000FC000
000FC000
000FC000
000FC000
000FC000
000FC000
000FC000
000FC000
000FC000
000FC000
000FC000
00000000
00000000
00000000
00000000
00000000
00000000
00000000
00000000
00000000
00000000
00000000
00000000
ENDCHAR
STARTCHAR CAPITAL LETTER Z
ENCODING 90
SWIDTH 1250 0
DWIDTH 30 0
BBX 30 60 0 -5
BITMAP
00000000
00000000
00000000
00000000
00000000
00000000
00000000
00000000
00000000
00000000
00000000
00000000
3FFFFFF0
3FFFFFF0
3FFFFFF0
3FFFFFF0
3FFFFFF0
3FFFFFF0
000003F0
000003F0
00000FF0
00000FF0
00007FF0
00007F80
00007F80
0001FE00
0001FE00
000FFE00
000FF000
000FF000
003FC000
003FC000
01FFC000
01FE0000
01FE0000
07F80000
07F80000
3FF80000
3FC00000
3FC00000
3F000000
3F000000
3FFFFFF0
3FFFFFF0
3FFFFFF0
3FFFFFF0
3FFFFFF0
3FFFFFF0
00000000
00000000
00000000
00000000
00000000
00000000
00000000
00000000
00000000
00000000
00000000
00000000
ENDCHAR
STARTCHAR LEFT SQUARE BRACKET
ENCODING 91
SWIDTH 1250 0
DWIDTH 30 0
BBX 30 60 0 -5
BITMAP
00000000
00000000
00000000
00000000
00000000
00000000
00000000
00000000
00000000
00000000
003FFE00
003FFE00
003FFE00
003FFE00
003FFE00
003E0000
003E0000
003E0000
003E0000
003E0000
003E0000
003E0000
003E0000
003E0000
003E0000
003E0000
003E0000
003E0000
003E0000
003E0000
003E0000
003E0000
003E0000
003E0000
003E0000
003E0000
003E0000
003E0000
003E0000
003E0000
003E0000
003E0000
003FFE00
003FFE00
003FFE00
003FFE00
003FFE00
003FFE00
00000000
00000000
00000000
00000000
00000000
00000000
00000000
00000000
00000000
00000000
00000000
00000000
ENDCHAR
STARTCHAR REVERSE SOLIDUS
ENCODING 92
SWIDTH 1250 0
DWIDTH 30 0
BBX 30 60 0 -5
BITMAP
00000000
00000000
00000000
00000000
00000000
00000000
00000000
00000000
00000000
00000000
00000000
00000000
07C00000
07C00000
07C00000
07C00000
07C00000
07F80000
01F80000
01F80000
01F80000
01F80000
01FE0000
003E0000
003E0000
003E0000
003E0000
003FC000
000FC000
000FC000
000FC000
000FC000
000FF000
0001F000
0001F000
0001F000
0001F000
0001FE00
00007E00
00007E00
00007E00
00007E00
00007F80
00000F80
00000F80
00000F80
00000F80
00000F80
00000000
00000000
00000000
00000000
00000000
00000000
00000000
00000000
00000000
00000000
00000000
00000000
ENDCHAR
STARTCHAR RIGHT SQUARE BRACKET
ENCODING 93
SWIDTH 1250 0
DWIDTH 30 0
BBX 30 60 0 -5
BITMAP
00000000
00000000
00000000
00000000
00000000
00000000
00000000
00000000
00000000
00000000
01FFF000
01FFF000
01FFF000
01FFF000
01FFF000
0001F000
0001F000
0001F000
0001F000
0001F000
0001F000
0001F000
0001F000
0001F000
0001F000
0001F000
0001F000
0001F000
0001F000
0001F000
0001F000
0001F000
0001F000
0001F000
0001F000
0001F000
0001F000
0001F000
0001F000
0001F000
0001F000
0001F000
01FFF000
01FFF000
01FFF000
01FFF000
01FFF000
01FFF000
00000000
00000000
00000000
00000000
00000000
00000000
00000000
00000000
00000000
00000000
00000000
00000000
ENDCHAR
STARTCHAR CIRCUMFLEX ACCENT
ENCODING 94
SWIDTH 1250 0
DWIDTH 30 0
BBX 30 60 0 -5
BITMAP
00000000
00000000
00000000
00000000
00000000
00000000
00000000
00000000
00000000
00000000
0001C000
0001C000
000FF000
000FF000
000FF000
003E7E00
003E7E00
01FE7F80
01F80F80
01F80F80
07C003F0
07C003F0
07C003F0
00000000
00000000
00000000
00000000
00000000
00000000
00000000
00000000
00000000
00000000
00000000
00000000
00000000
00000000
00000000
00000000
00000000
00000000
00000000
00000000
00000000
00000000
00000000
00000000
00000000
00000000
00000000
00000000
00000000
00000000
00000000
00000000
00000000
00000000
00000000
00000000
00000000
ENDCHAR
STARTCHAR LOW LINE
ENCODING 95
SWIDTH 1250 0
DWIDTH 30 0
BBX 30 60 0 -5
BITMAP
00000000
00000000
00000000
00000000
00000000
00000000
00000000
00000000
00000000
00000000
00000000
00000000
00000000
00000000
00000000
00000000
00000000
00000000
00000000
00000000
00000000
00000000
00000000
00000000
00000000
00000000
00000000
00000000
00000000
00000000
00000000
00000000
00000000
00000000
00000000
00000000
00000000
00000000
00000000
00000000
00000000
00000000
00000000
00000000
00000000
00000000
00000000
00000000
00000000
00000000
FFFFFFFC
FFFFFFFC
FFFFFFFC
FFFFFFFC
FFFFFFFC
00000000
00000000
00000000
00000000
00000000
ENDCHAR
STARTCHAR GRAVE ACCENT
ENCODING 96
SWIDTH 1250 0
DWIDTH 30 0
BBX 30 60 0 -5
BITMAP
00000000
00000000
00000000
00000000
00000000
00000000
00000000
0001F000
0001F000
0001F000
000FC000
000FC000
003FC000
003E0000
003E0000
003E0000
003E0000
003FF000
003FF000
003FF000
003FF000
003FF000
003FF000
000FC000
000FC000
00000000
00000000
00000000
00000000
00000000
00000000
00000000
00000000
00000000
00000000
00000000
00000000
00000000
00000000
00000000
00000000
00000000
00000000
00000000
00000000
00000000
00000000
00000000
00000000
00000000
00000000
00000000
00000000
00000000
00000000
00000000
00000000
00000000
00000000
00000000
ENDCHAR
STARTCHAR SMALL LETTER a
ENCODING 97
SWIDTH 1250 0
DWIDTH 30 0
BBX 30 60 0 -5
BITMAP
00000000
00000000
00000000
00000000
00000000
00000000
00000000
00000000
00000000
00000000
00000000
00000000
00000000
00000000
00000000
00000000
00000000
00000000
00000000
00000000
000FFE00
000FFE00
003FFF80
003FFF80
003FFF80
01F803F0
01F803F0
01F803F0
000003F0
000003F0
000FFFF0
000FFFF0
01FFFFF0
01FFFFF0
01FFFFF0
07C003F0
07C003F0
07C00FF0
07C00FF0
07C00FF0
07C07FF0
07C07FF0
07FFFFF0
07FFF3F0
07FFF3F0
01FFC3F0
01FFC3F0
01FFC3F0
00000000
00000000
00000000
00000000
00000000
00000000
00000000
00000000
00000000
00000000
00000000
00000000
ENDCHAR
STARTCHAR SMALL LETTER b
ENCODING 98
SWIDTH 1250 0
DWIDTH 30 0
BBX 30 60 0 -5
BITMAP
00000000
00000000
00000000
00000000
00000000
00000000
00000000
00000000
00000000
00000000
00000000
00000000
07C00000
07C00000
07C00000
07C00000
07C00000
07C00000
07C00000
07C00000
07C00000
07C00000
07C1FE00
07C1FE00
07C1FE00
07CFFF80
07CFFF80
07FFFFF0
07FE0FF0
07FE0FF0
07F803F0
07F803F0
07F803F0
07C003F0
07C003F0
07C003F0
07C003F0
07F803F0
07F803F0
07F803F0
07FE0FF0
07FE0FF0
07FFFFF0
07CFFF80
07CFFF80
07C1FE00
07C1FE00
07C1FE00
00000000
00000000
00000000
00000000
00000000
00000000
00000000
00000000
00000000
00000000
00000000
00000000
ENDCHAR
STARTCHAR SMALL LETTER c
ENCODING 99
SWIDTH 1250 0
DWIDTH 30 0
BBX 30 60 0 -5
BITMAP
00000000
00000000
00000000
00000000
00000000
00000000
00000000
00000000
00000000
00000000
00000000
00000000
00000000
00000000
00000000
00000000
00000000
00000000
00000000
00000000
00000000
00000000
003FFF80
003FFF80
003FFF80
01FFFF80
01FFFF80
07FFFFF0
07F803F0
07F803F0
07C003F0
07C003F0
07C003F0
07C00000
07C00000
07C00000
07C00000
07C00000
07C00000
07C00000
07F803F0
07F803F0
07FFFFF0
01FFFFF0
01FFFFF0
003FFF80
003FFF80
003FFF80
00000000
00000000
00000000
00000000
00000000
00000000
00000000
00000000
00000000
00000000
00000000
00000000
ENDCHAR
STARTCHAR SMALL LETTER d
ENCODING 100
SWIDTH 1250 0
DWIDTH 30 0
BBX 30 60 0 -5
BITMAP
00000000
00000000
00000000
00000000
00000000
00000000
00000000
00000000
00000000
00000000
00000000
00000000
000003F0
000003F0
000003F0
000003F0
000003F0
000003F0
000003F0
000003F0
000003F0
000003F0
003FF3F0
003FF3F0
003FF3F0
01FFFFF0
01FFFFF0
07FFFFF0
07F80FF0
07F80FF0
07C003F0
07C003F0
07C003F0
07C003F0
07C003F0
07C003F0
07C003F0
07C00FF0
07C00FF0
07C00FF0
07C07FF0
07C07FF0
07FFFFF0
01FFF3F0
01FFF3F0
003FC3F0
003FC3F0
003FC3F0
00000000
00000000
00000000
00000000
00000000
00000000
00000000
00000000
00000000
00000000
00000000
00000000
ENDCHAR
STARTCHAR SMALL LETTER e
ENCODING 101
SWIDTH 1250 0
DWIDTH 30 0
BBX 30 60 0 -5
BITMAP
00000000
00000000
00000000
00000000
00000000
00000000
00000000
00000000
00000000
00000000
00000000
00000000
00000000
00000000
00000000
00000000
00000000
00000000
00000000
00000000
00000000
00000000
003FFE00
003FFE00
003FFE00
01FFFF80
01FFFF80
07FFFFF0
07F803F0
07F803F0
07C003F0
07C003F0
07FFFFF0
07FFFFF0
07FFFFF0
07FFFFF0
07FFFFF0
07FFFFF0
07C00000
07C00000
07C003F0
07C003F0
07FFFFF0
01FFFFF0
01FFFFF0
003FFF80
003FFF80
003FFF80
00000000
00000000
00000000
00000000
00000000
00000000
00000000
00000000
00000000
00000000
00000000
00000000
ENDCHAR
STARTCHAR SMALL LETTER f
ENCODING 102
SWIDTH 1250 0
DWIDTH 30 0
BBX 30 60 0 -5
BITMAP
00000000
00000000
00000000
00000000
00000000
00000000
00000000
00000000
00000000
00000000
00000000
00000000
0001FE00
0001FE00
0001FE00
000FFE00
000FFE00
000FFE00
000FC000
000FC000
000FC000
000FC000
000FC000
000FC000
000FC000
01FFFE00
01FFFE00
01FFFE00
01FFFE00
01FFFE00
000FC000
000FC000
000FC000
000FC000
000FC000
000FC000
000FC000
000FC000
000FC000
000FC000
000FC000
000FC000
000FC000
000FC000
000FC000
000FC000
000FC000
000FC000
00000000
00000000
00000000
00000000
00000000
00000000
00000000
00000000
00000000
00000000
00000000
00000000
ENDCHAR
STARTCHAR SMALL LETTER g
ENCODING 103
SWIDTH 1250 0
DWIDTH 30 0
BBX 30 60 0 -5
BITMAP
00000000
00000000
00000000
00000000
00000000
00000000
00000000
00000000
00000000
00000000
00000000
00000000
00000000
00000000
00000000
00000000
00000000
00000000
00000000
00000000
00000000
00000000
003FC3F0
003FC3F0
003FC3F0
01FFF3F0
01FFF3F0
07FFFFF0
07F87FF0
07F87FF0
07C00FF0
07C00FF0
07C00FF0
07C003F0
07C003F0
07C003F0
07C003F0
07C003F0
07C003F0
07C003F0
07F80FF0
07F80FF0
07FFFFF0
01FFFFF0
01FFFFF0
003FF3F0
003FF3F0
003FF3F0
000003F0
000003F0
000003F0
000003F0
000003F0
000003F0
000003F0
003FFF80
003FFF80
003FFF80
000FFE00
000FFE00
ENDCHAR
STARTCHAR SMALL LETTER h
ENCODING 104
SWIDTH 1250 0
DWIDTH 30 0
BBX 30 60 0 -5
BITMAP
00000000
00000000
00000000
00000000
00000000
00000000
00000000
00000000
00000000
00000000
00000000
00000000
07C00000
07C00000
07C00000
07C00000
07C00000
07C00000
07C00000
07C00000
07C00000
07C00000
07C1FE00
07C1FE00
07C1FE00
07CFFF80
07CFFF80
07FFFFF0
07FE0FF0
07FE0FF0
07F803F0
07F803F0
07F803F0
07C003F0
07C003F0
07C003F0
07C003F0
07C003F0
07C003F0
07C003F0
07C003F0
07C003F0
07C003F0
07C003F0
07C003F0
07C003F0
07C003F0
07C003F0
00000000
00000000
00000000
00000000
00000000
00000000
00000000
00000000
00000000
00000000
00000000
00000000
ENDCHAR
STARTCHAR SMALL LETTER i
ENCODING 105
SWIDTH 1250 0
DWIDTH 30 0
BBX 30 60 0 -5
BITMAP
00000000
00000000
00000000
00000000
00000000
00000000
00000000
00000000
00000000
00000000
00000000
00000000
000FC000
000FC000
000FC000
000FC000
000FC000
000FC000
00000000
00000000
00000000
00000000
000FC000
000FC000
000FC000
000FC000
000FC000
000FC000
000FC000
000FC000
000FC000
000FC000
000FC000
000FC000
000FC000
000FC000
000FC000
000FC000
000FC000
000FC000
000FC000
000FC000
000FC000
000FC000
000FC000
000FC000
000FC000
000FC000
00000000
00000000
00000000
00000000
00000000
00000000
00000000
00000000
00000000
00000000
00000000
00000000
ENDCHAR
STARTCHAR SMALL LETTER j
ENCODING 106
SWIDTH 1250 0
DWIDTH 30 0
BBX 30 60 0 -5
BITMAP
00000000
00000000
00000000
00000000
00000000
00000000
00000000
00000000
00000000
00000000
00000000
00000000
000FC000
000FC000
000FC000
000FC000
000FC000
000FC000
00000000
00000000
00000000
00000000
000FC000
000FC000
000FC000
000FC000
000FC000
000FC000
000FC000
000FC000
000FC000
000FC000
000FC000
000FC000
000FC000
000FC000
000FC000
000FC000
000FC000
000FC000
000FC000
000FC000
000FC000
000FC000
000FC000
000FC000
000FC000
000FC000
000FC000
000FC000
000FC000
000FC000
07FFC000
07FFC000
07FFC000
07F80000
07F80000
07F80000
00000000
00000000
ENDCHAR
STARTCHAR SMALL LETTER k
ENCODING 107
SWIDTH 1250 0
DWIDTH 30 0
BBX 30 60 0 -5
BITMAP
00000000
00000000
00000000
00000000
00000000
00000000
00000000
00000000
00000000
00000000
00000000
00000000
00000000
00000000
00000000
07C00000
07C00000
07C00000
07C00000
07C00000
07C00F80
07C00F80
07C07F80
07C07F80
07C07F80
07C1FE00
07C1FE00
07CFFE00
07CFF000
07CFF000
07FFC000
07FFC000
07FFC000
07FE0000
07FE0000
07FFC000
07FFC000
07FFF000
07CFF000
07CFF000
07C1FE00
07C1FE00
07C1FF80
07C07F80
07C07F80
07C00F80
07C00F80
07C00F80
00000000
00000000
00000000
00000000
00000000
00000000
00000000
00000000
00000000
00000000
00000000
00000000
ENDCHAR
STARTCHAR SMALL LETTER l
ENCODING 108
SWIDTH 1250 0
DWIDTH 30 0
BBX 30 60 0 -5
BITMAP
00000000
00000000
00000000
00000000
00000000
00000000
00000000
00000000
00000000
00000000
00000000
00000000
000FC000
000FC000
000FC000
000FC000
000FC000
000FC000
000FC000
000FC000
000FC000
000FC000
000FC000
000FC000
000FC000
000FC000
000FC000
000FC000
000FC000
000FC000
000FC000
000FC000
000FC000
000FC000
000FC000
000FC000
000FC000
000FC000
000FC000
000FC000
000FC000
000FC000
000FFE00
000FFE00
000FFE00
0001FE00
0001FE00
0001FE00
00000000
00000000
00000000
00000000
00000000
00000000
00000000
00000000
00000000
00000000
00000000
00000000
ENDCHAR
STARTCHAR SMALL LETTER m
ENCODING 109
SWIDTH 1250 0
DWIDTH 30 0
BBX 30 60 0 -5
BITMAP
00000000
00000000
00000000
00000000
00000000
00000000
00000000
00000000
00000000
00000000
00000000
00000000
00000000
00000000
00000000
00000000
00000000
00000000
00000000
00000000
3F000000
3F000000
3F3E7F80
3F3E7F80
3F3E7F80
3FFFFFF0
3FFFFFF0
3FFFFFF0
3F0FC3F0
3F0FC3F0
3F0FC3F0
3F0FC3F0
3F0FC3F0
3F0FC3F0
3F0FC3F0
3F0FC3F0
3F0FC3F0
3F0FC3F0
3F0FC3F0
3F0FC3F0
3F0FC3F0
3F0FC3F0
3F0FC3F0
3F0FC3F0
3F0FC3F0
3F0FC3F0
3F0FC3F0
3F0FC3F0
00000000
00000000
00000000
00000000
00000000
00000000
00000000
00000000
00000000
00000000
00000000
00000000
ENDCHAR
STARTCHAR SMALL LETTER n
ENCODING 110
SWIDTH 1250 0
DWIDTH 30 0
BBX 30 60 0 -5
BITMAP
00000000
00000000
00000000
00000000
00000000
00000000
00000000
00000000
00000000
00000000
00000000
00000000
00000000
00000000
00000000
00000000
00000000
00000000
00000000
00000000
00000000
00000000
07C1FE00
07C1FE00
07C1FE00
07CFFF80
07CFFF80
07FFFFF0
07FE03F0
07FE03F0
07F803F0
07F803F0
07F803F0
07C003F0
07C003F0
07C003F0
07C003F0
07C003F0
07C003F0
07C003F0
07C003F0
07C003F0
07C003F0
07C003F0
07C003F0
07C003F0
07C003F0
07C003F0
00000000
00000000
00000000
00000000
00000000
00000000
00000000
00000000
00000000
00000000
00000000
00000000
ENDCHAR
STARTCHAR SMALL LETTER o
ENCODING 111
SWIDTH 1250 0
DWIDTH 30 0
BBX 30 60 0 -5
BITMAP
00000000
00000000
00000000
00000000
00000000
00000000
00000000
00000000
00000000
00000000
00000000
00000000
00000000
00000000
00000000
00000000
00000000
00000000
00000000
00000000
00000000
00000000
003FFE00
003FFE00
003FFE00
01FFFF80
01FFFF80
07FFFFF0
07F80FF0
07F80FF0
07C003F0
07C003F0
07C003F0
07C003F0
07C003F0
07C003F0
07C003F0
07C003F0
07C003F0
07C003F0
07F80FF0
07F80FF0
07FFFFF0
01FFFF80
01FFFF80
003FFE00
003FFE00
003FFE00
00000000
00000000
00000000
00000000
00000000
00000000
00000000
00000000
00000000
00000000
00000000
00000000
ENDCHAR
STARTCHAR SMALL LETTER p
ENCODING 112
SWIDTH 1250 0
DWIDTH 30 0
BBX 30 60 0 -5
BITMAP
00000000
00000000
00000000
00000000
00000000
00000000
00000000
00000000
00000000
00000000
00000000
00000000
00000000
00000000
00000000
00000000
00000000
00000000
00000000
00000000
00000000
00000000
07C1FE00
07C1FE00
07C1FE00
07CFFF80
07CFFF80
07FFFFF0
07FE0FF0
07FE0FF0
07F803F0
07F803F0
07F803F0
07C003F0
07C003F0
07C003F0
07C003F0
07F803F0
07F803F0
07F803F0
07FE0FF0
07FE0FF0
07FFFFF0
07CFFF80
07CFFF80
07C1FE00
07C1FE00
07C1FE00
07C00000
07C00000
07C00000
07C00000
07C00000
07C00000
07C00000
07C00000
07C00000
07C00000
00000000
00000000
ENDCHAR
STARTCHAR SMALL LETTER q
ENCODING 113
SWIDTH 1250 0
DWIDTH 30 0
BBX 30 60 0 -5
BITMAP
00000000
00000000
00000000
00000000
00000000
00000000
00000000
00000000
00000000
00000000
00000000
00000000
00000000
00000000
00000000
00000000
00000000
00000000
00000000
00000000
00000000
00000000
003FC3F0
003FC3F0
003FC3F0
01FFF3F0
01FFF3F0
07FFFFF0
07F87FF0
07F87FF0
07C00FF0
07C00FF0
07C00FF0
07C003F0
07C003F0
07C003F0
07C003F0
07C00FF0
07C00FF0
07C00FF0
07F87FF0
07F87FF0
07FFFFF0
01FFF3F0
01FFF3F0
003FC3F0
003FC3F0
003FC3F0
000003F0
000003F0
000003F0
000003F0
000003F0
000003F0
000003F0
000003F0
000003F0
000003F0
00000000
00000000
ENDCHAR
STARTCHAR SMALL LETTER r
ENCODING 114
SWIDTH 1250 0
DWIDTH 30 0
BBX 30 60 0 -5
BITMAP
00000000
00000000
00000000
00000000
00000000
00000000
00000000
00000000
00000000
00000000
00000000
00000000
00000000
00000000
00000000
00000000
00000000
00000000
00000000
00000000
00000000
00000000
07C1FE00
07C1FE00
07C1FE00
07CFFF80
07CFFF80
07FFFFF0
07FE03F0
07FE03F0
07F803F0
07F803F0
07F803F0
07C00000
07C00000
07C00000
07C00000
07C00000
07C00000
07C00000
07C00000
07C00000
07C00000
07C00000
07C00000
07C00000
07C00000
07C00000
00000000
00000000
00000000
00000000
00000000
00000000
00000000
00000000
00000000
00000000
00000000
00000000
ENDCHAR
STARTCHAR SMALL LETTER s
ENCODING 115
SWIDTH 1250 0
DWIDTH 30 0
BBX 30 60 0 -5
BITMAP
00000000
00000000
00000000
00000000
00000000
00000000
00000000
00000000
00000000
00000000
00000000
00000000
00000000
00000000
00000000
00000000
00000000
00000000
00000000
00000000
00000000
00000000
01FFFF80
01FFFF80
01FFFF80
07FFFFF0
07FFFFF0
07FFFFF0
07C00070
07C00070
07C00000
07C00000
07FFFE00
01FFFE00
01FFFE00
003FFF80
003FFF80
003FFFF0
000003F0
000003F0
07C003F0
07C003F0
07FFFFF0
07FFFFF0
07FFFFF0
01FFFF80
01FFFF80
01FFFF80
00000000
00000000
00000000
00000000
00000000
00000000
00000000
00000000
00000000
00000000
00000000
00000000
ENDCHAR
STARTCHAR SMALL LETTER t
ENCODING 116
SWIDTH 1250 0
DWIDTH 30 0
BBX 30 60 0 -5
BITMAP
00000000
00000000
00000000
00000000
00000000
00000000
00000000
00000000
00000000
00000000
00000000
00000000
00000000
00000000
00000000
000FC000
000FC000
000FC000
000FC000
000FC000
000FC000
000FC000
01FFFE00
01FFFE00
01FFFE00
01FFFE00
01FFFE00
01FFFE00
000FC000
000FC000
000FC000
000FC000
000FC000
000FC000
000FC000
000FC000
000FC000
000FC000
000FC000
000FC000
000FC000
000FC000
000FFE00
000FFE00
000FFE00
0001FE00
0001FE00
0001FE00
00000000
00000000
00000000
00000000
00000000
00000000
00000000
00000000
00000000
00000000
00000000
00000000
ENDCHAR
STARTCHAR SMALL LETTER u
ENCODING 117
SWIDTH 1250 0
DWIDTH 30 0
BBX 30 60 0 -5
BITMAP
00000000
00000000
00000000
00000000
00000000
00000000
00000000
00000000
00000000
00000000
00000000
00000000
00000000
00000000
00000000
00000000
00000000
00000000
00000000
00000000
00000000
00000000
07C003F0
07C003F0
07C003F0
07C003F0
07C003F0
07C003F0
07C003F0
07C003F0
07C003F0
07C003F0
07C003F0
07C003F0
07C003F0
07C003F0
07C003F0
07C00FF0
07C00FF0
07C00FF0
07F87FF0
07F87FF0
07FFFFF0
01FFF3F0
01FFF3F0
003FC3F0
003FC3F0
003FC3F0
00000000
00000000
00000000
00000000
00000000
00000000
00000000
00000000
00000000
00000000
00000000
00000000
ENDCHAR
STARTCHAR SMALL LETTER v
ENCODING 118
SWIDTH 1250 0
DWIDTH 30 0
BBX 30 60 0 -5
BITMAP
00000000
00000000
00000000
00000000
00000000
00000000
00000000
00000000
00000000
00000000
00000000
00000000
00000000
00000000
00000000
00000000
00000000
00000000
00000000
00000000
00000000
00000000
3F0003F0
3F0003F0
3F0003F0
3F0003F0
3F0003F0
3FC00FF0
07C00F80
07C00F80
07C00F80
07C00F80
07F87F80
01F87E00
01F87E00
01F87E00
01F87E00
01FFFE00
003FF000
003FF000
003FF000
003FF000
003FF000
000FC000
000FC000
000FC000
000FC000
000FC000
00000000
00000000
00000000
00000000
00000000
00000000
00000000
00000000
00000000
00000000
00000000
00000000
ENDCHAR
STARTCHAR SMALL LETTER w
ENCODING 119
SWIDTH 1250 0
DWIDTH 30 0
BBX 30 60 0 -5
BITMAP
00000000
00000000
00000000
00000000
00000000
00000000
00000000
00000000
00000000
00000000
00000000
00000000
00000000
00000000
00000000
00000000
00000000
00000000
00000000
00000000
00000000
00000000
07C003F0
07C003F0
07C003F0
07C003F0
07C003F0
07C003F0
07C003F0
07C003F0
07C003F0
07C003F0
07C1C3F0
07C1C3F0
07C1C3F0
07CFF3F0
07CFF3F0
07CFF3F0
07CFF3F0
07CFF3F0
07FE7FF0
07FE7FF0
07FE7FF0
07F80FF0
07F80FF0
07C003F0
07C003F0
07C003F0
00000000
00000000
00000000
00000000
00000000
00000000
00000000
00000000
00000000
00000000
00000000
00000000
ENDCHAR
STARTCHAR SMALL LETTER x
ENCODING 120
SWIDTH 1250 0
DWIDTH 30 0
BBX 30 60 0 -5
BITMAP
00000000
00000000
00000000
00000000
00000000
00000000
00000000
00000000
00000000
00000000
00000000
00000000
00000000
00000000
00000000
00000000
00000000
00000000
00000000
00000000
00000000
00000000
07C003F0
07C003F0
07C003F0
07C003F0
07C003F0
07F80FF0
01F80F80
01F80F80
003E7E00
003E7E00
003FFE00
000FF000
000FF000
000FF000
000FF000
003FFE00
003E7E00
003E7E00
01F80F80
01F80F80
07F80FF0
07C003F0
07C003F0
07C003F0
07C003F0
07C003F0
00000000
00000000
00000000
00000000
00000000
00000000
00000000
00000000
00000000
00000000
00000000
00000000
ENDCHAR
STARTCHAR SMALL LETTER y
ENCODING 121
SWIDTH 1250 0
DWIDTH 30 0
BBX 30 60 0 -5
BITMAP
00000000
00000000
00000000
00000000
00000000
00000000
00000000
00000000
00000000
00000000
00000000
00000000
00000000
00000000
00000000
00000000
00000000
00000000
00000000
00000000
00000000
00000000
07C003F0
07C003F0
07C003F0
07C003F0
07C003F0
07C003F0
07C003F0
07C003F0
07C003F0
07C003F0
07C003F0
07C003F0
07C003F0
07C003F0
07C003F0
07C003F0
07C003F0
07C003F0
07C00FF0
07C00FF0
07FFFFF0
01FFFFF0
01FFFFF0
003FF3F0
003FF3F0
003FF3F0
000003F0
000003F0
000003F0
000003F0
000003F0
000003F0
000003F0
01FFFF80
01FFFF80
01FFFF80
003FFE00
003FFE00
ENDCHAR
STARTCHAR SMALL LETTER z
ENCODING 122
SWIDTH 1250 0
DWIDTH 30 0
BBX 30 60 0 -5
BITMAP
00000000
00000000
00000000
00000000
00000000
00000000
00000000
00000000
00000000
00000000
00000000
00000000
00000000
00000000
00000000
00000000
00000000
00000000
00000000
00000000
00000000
00000000
07FFFFF0
07FFFFF0
07FFFFF0
07FFFFF0
07FFFFF0
07FFFFF0
00000F80
00000F80
00007E00
00007E00
0001FE00
0001F000
0001F000
000FC000
000FC000
003FC000
003E0000
003E0000
01F80000
01F80000
07FFFFF0
07FFFFF0
07FFFFF0
07FFFFF0
07FFFFF0
07FFFFF0
00000000
00000000
00000000
00000000
00000000
00000000
00000000
00000000
00000000
00000000
00000000
00000000
ENDCHAR
STARTCHAR LEFT CURLY BRACKET
ENCODING 123
SWIDTH 1250 0
DWIDTH 30 0
BBX 30 60 0 -5
BITMAP
00000000
00000000
00000000
00000000
00000000
00000000
00000000
00000000
00000000
00000000
0001FE00
0001FE00
000FFE00
000FC000
000FC000
000FC000
000FC000
000FC000
000FC000
000FC000
000FC000
000FC000
000FC000
000FC000
000FC000
003E0000
003E0000
01FE0000
01FE0000
01FE0000
003E0000
003E0000
003FC000
000FC000
000FC000
000FC000
000FC000
000FC000
000FC000
000FC000
000FC000
000FC000
000FC000
000FC000
000FC000
0001FE00
0001FE00
0001FE00
00000000
00000000
00000000
00000000
00000000
00000000
00000000
00000000
00000000
00000000
00000000
00000000
ENDCHAR
STARTCHAR VERTICAL LINE
ENCODING 124
SWIDTH 1250 0
DWIDTH 30 0
BBX 30 60 0 -5
BITMAP
00000000
00000000
000FC000
000FC000
000FC000
000FC000
000FC000
000FC000
000FC000
000FC000
000FC000
000FC000
000FC000
000FC000
000FC000
000FC000
000FC000
000FC000
000FC000
000FC000
000FC000
000FC000
000FC000
000FC000
000FC000
000FC000
000FC000
000FC000
000FC000
000FC000
000FC000
000FC000
000FC000
000FC000
000FC000
000FC000
000FC000
000FC000
000FC000
000FC000
000FC000
000FC000
000FC000
000FC000
000FC000
000FC000
000FC000
000FC000
000FC000
000FC000
000FC000
000FC000
000FC000
000FC000
000FC000
000FC000
000FC000
000FC000
00000000
00000000
ENDCHAR
STARTCHAR RIGHT CURLY BRACKET
ENCODING 125
SWIDTH 1250 0
DWIDTH 30 0
BBX 30 60 0 -5
BITMAP
00000000
00000000
00000000
00000000
00000000
00000000
00000000
00000000
00000000
00000000
01FE0000
01FE0000
01FFC000
000FC000
000FC000
000FC000
000FC000
000FC000
000FC000
000FC000
000FC000
000FC000
000FC000
000FC000
000FC000
0001F000
0001F000
0001FE00
0001FE00
0001FE00
0001F000
0001F000
000FF000
000FC000
000FC000
000FC000
000FC000
000FC000
000FC000
000FC000
000FC000
000FC000
000FC000
000FC000
000FC000
01FE0000
01FE0000
01FE0000
00000000
00000000
00000000
00000000
00000000
00000000
00000000
00000000
00000000
00000000
00000000
00000000
ENDCHAR
STARTCHAR TILDE
ENCODING 126
SWIDTH 1250 0
DWIDTH 30 0
BBX 30 60 0 -5
BITMAP
00000000
00000000
00000000
00000000
00000000
00000000
00000000
00000000
00000000
00000000
01FE0070
01FE0070
07FFC3F0
07FFC3F0
07FFC3F0
070FFFF0
070FFFF0
3F0FFFF0
3F007F80
3F007F80
00000000
00000000
00000000
00000000
00000000
00000000
00000000
00000000
00000000
00000000
00000000
00000000
00000000
00000000
00000000
00000000
00000000
00000000
00000000
00000000
00000000
00000000
00000000
00000000
00000000
00000000
00000000
00000000
00000000
00000000
00000000
00000000
00000000
00000000
00000000
00000000
00000000
00000000
00000000
00000000
ENDCHAR
STARTCHAR NO-BREAK SPACE
ENCODING 160
SWIDTH 1250 0
DWIDTH 30 0
BBX 30 60 0 -5
BITMAP
00000000
00000000
00000000
00000000
00000000
00000000
00000000
00000000
00000000
00000000
00000000
00000000
00000000
00000000
00000000
00000000
00000000
00000000
00000000
00000000
00000000
00000000
00000000
00000000
00000000
00000000
00000000
00000000
00000000
00000000
00000000
00000000
00000000
00000000
00000000
00000000
00000000
00000000
00000000
00000000
00000000
00000000
00000000
00000000
00000000
00000000
00000000
00000000
00000000
00000000
00000000
00000000
00000000
00000000
00000000
00000000
00000000
00000000
00000000
00000000
ENDCHAR
STARTCHAR INVERTED EXCLAMATION MARK
ENCODING 161
SWIDTH 1250 0
DWIDTH 30 0
BBX 30 60 0 -5
BITMAP
00000000
00000000
00000000
00000000
00000000
00000000
00000000
00000000
00000000
00000000
000FC000
000FC000
003FF000
003FF000
003FF000
000FC000
000FC000
000FC000
00000000
00000000
00000000
00000000
000FC000
000FC000
000FC000
000FC000
000FC000
000FC000
000FC000
000FC000
000FC000
000FC000
000FC000
000FC000
000FC000
000FC000
000FC000
000FC000
000FC000
000FC000
000FC000
000FC000
000FC000
000FC000
000FC000
000FC000
000FC000
000FC000
00000000
00000000
00000000
00000000
00000000
00000000
00000000
00000000
00000000
00000000
00000000
00000000
ENDCHAR
STARTCHAR CENT SIGN
ENCODING 162
SWIDTH 1250 0
DWIDTH 30 0
BBX 30 60 0 -5
BITMAP
00000000
00000000
00000000
00000000
00000000
00000000
00000000
00000000
00000000
00000000
00000000
00000000
0001F000
0001F000
0001F000
0001F000
0001F000
003FFE00
003FFE00
003FFE00
01FFFF80
01FFFF80
07FFFFF0
07F9F3F0
07F9F3F0
07C1F3F0
07C1F3F0
07C1F3F0
07C1F000
07C1F000
07C1F000
07C1F000
07C1F3F0
07C1F3F0
07C1F3F0
07F9F3F0
07F9F3F0
07FFFFF0
01FFFF80
01FFFF80
003FFE00
003FFE00
003FFE00
0001F000
0001F000
0001F000
0001F000
0001F000
00000000
00000000
00000000
00000000
00000000
00000000
00000000
00000000
00000000
00000000
00000000
00000000
ENDCHAR
STARTCHAR POUND SIGN
ENCODING 163
SWIDTH 1250 0
DWIDTH 30 0
BBX 30 60 0 -5
BITMAP
00000000
00000000
00000000
00000000
00000000
00000000
00000000
00000000
00000000
00000000
00000000
00000000
000FFE00
000FFE00
000FFE00
003FFF80
003FFF80
01FFFF80
01FE0F80
01FE0F80
01F80000
01F80000
01F80000
01F80000
01F80000
01FE0000
01FE0000
07FFFF80
07FFFF80
07FFFF80
07FFFF80
07FFFF80
07FFFF80
003E0000
003E0000
003E0000
003E0000
01FFFE00
01FFFE00
01FFFE00
07FFFF80
07FFFF80
07FFFFF0
07F80FF0
07F80FF0
07C003F0
07C003F0
07C003F0
00000000
00000000
00000000
00000000
00000000
00000000
00000000
00000000
00000000
00000000
00000000
00000000
ENDCHAR
STARTCHAR CURRENCY SIGN
ENCODING 164
SWIDTH 1250 0
DWIDTH 30 0
BBX 30 60 0 -5
BITMAP
00000000
00000000
00000000
00000000
00000000
00000000
00000000
00000000
00000000
00000000
00000000
00000000
00000000
00000000
00000000
00000000
00000000
3F0003F0
3F0003F0
3F0003F0
3FCFCFF0
3FCFCFF0
3FFFFFF0
07FFFF80
07FFFF80
01F87E00
01F87E00
07F87F80
07C00F80
07C00F80
07C00F80
07C00F80
07F87F80
01F87E00
01F87E00
07FFFF80
07FFFF80
3FFFFFF0
3FCFCFF0
3FCFCFF0
3F0003F0
3F0003F0
3F0003F0
00000000
00000000
00000000
00000000
00000000
00000000
00000000
00000000
00000000
00000000
00000000
00000000
00000000
00000000
00000000
00000000
00000000
ENDCHAR
STARTCHAR YEN SIGN
ENCODING 165
SWIDTH 1250 0
DWIDTH 30 0
BBX 30 60 0 -5
BITMAP
00000000
00000000
00000000
00000000
00000000
00000000
00000000
00000000
00000000
00000000
00000000
00000000
07C00F80
07C00F80
07C00F80
07F87F80
07F87F80
07F87F80
01F87E00
01F87E00
01FFFE00
01FFFE00
01FFFE00
003FF000
003FF000
07FFFF80
07FFFF80
07FFFF80
07FFFF80
07FFFF80
000FC000
000FC000
07FFFF80
07FFFF80
07FFFF80
07FFFF80
07FFFF80
07FFFF80
000FC000
000FC000
000FC000
000FC000
000FC000
000FC000
000FC000
000FC000
000FC000
000FC000
00000000
00000000
00000000
00000000
00000000
00000000
00000000
00000000
00000000
00000000
00000000
00000000
ENDCHAR
STARTCHAR BROKEN BAR
ENCODING 166
SWIDTH 1250 0
DWIDTH 30 0
BBX 30 60 0 -5
BITMAP
00000000
00000000
000FC000
000FC000
000FC000
000FC000
000FC000
000FC000
000FC000
000FC000
000FC000
000FC000
000FC000
000FC000
000FC000
000FC000
000FC000
000FC000
000FC000
000FC000
000FC000
000FC000
000FC000
000FC000
000FC000
000FC000
000FC000
000FC000
00000000
00000000
00000000
00000000
000FC000
000FC000
000FC000
000FC000
000FC000
000FC000
000FC000
000FC000
000FC000
000FC000
000FC000
000FC000
000FC000
000FC000
000FC000
000FC000
000FC000
000FC000
000FC000
000FC000
000FC000
000FC000
000FC000
000FC000
000FC000
000FC000
00000000
00000000
ENDCHAR
STARTCHAR PARAGRAPH SIGN
ENCODING 167
SWIDTH 1250 0
DWIDTH 30 0
BBX 30 60 0 -5
BITMAP
00000000
00000000
00000000
00000000
00000000
00000000
00000000
00000000
00000000
00000000
003FFE00
003FFE00
01FFFF80
01FFFF80
01FFFF80
07F80FF0
07F80FF0
07F80FF0
07C003F0
07C003F0
07F80000
07F80000
07FFFE00
01FFFE00
01FFFE00
01FFFF80
01FFFF80
07FFFFF0
07C003F0
07C003F0
07C003F0
07C003F0
07FFFFF0
01FFFF80
01FFFF80
003FFF80
003FFF80
003FFFF0
00000FF0
00000FF0
07C003F0
07C003F0
07F80FF0
07F80FF0
07F80FF0
01FFFF80
01FFFF80
01FFFF80
003FFE00
003FFE00
00000000
00000000
00000000
00000000
00000000
00000000
00000000
00000000
00000000
00000000
ENDCHAR
STARTCHAR DIAERESIS
ENCODING 168
SWIDTH 1250 0
DWIDTH 30 0
BBX 30 60 0 -5
BITMAP
00000000
00000000
01F80F80
01F80F80
01F80F80
01F80F80
01F80F80
01F80F80
00000000
00000000
00000000
00000000
00000000
00000000
00000000
00000000
00000000
00000000
00000000
00000000
00000000
00000000
00000000
00000000
00000000
00000000
00000000
00000000
00000000
00000000
00000000
00000000
00000000
00000000
00000000
00000000
00000000
00000000
00000000
00000000
00000000
00000000
00000000
00000000
00000000
00000000
00000000
00000000
00000000
00000000
00000000
00000000
00000000
00000000
00000000
00000000
00000000
00000000
00000000
00000000
ENDCHAR
STARTCHAR COPYRIGHT SIGN
ENCODING 169
SWIDTH 1250 0
DWIDTH 30 0
BBX 30 60 0 -5
BITMAP
00000000
00000000
00000000
00000000
00000000
00000000
00000000
00000000
00000000
00000000
003FFE00
003FFE00
01FFFF80
01FFFF80
01FFFF80
07F80FF0
07F80FF0
07F80FF0
07C003F0
07C003F0
3F0FF07C
3F0FF07C
3F3FFE7C
3F3FFE7C
3F3FFE7C
3F3E0E7C
3F3E0E7C
3F3E0E7C
3F38007C
3F38007C
3F3E0E7C
3F3E0E7C
3F3FFE7C
3F3FFE7C
3F3FFE7C
3F0FF07C
3F0FF07C
3FCFF3FC
07C003F0
07C003F0
07F80FF0
07F80FF0
07FFFFF0
01FFFF80
01FFFF80
003FFE00
003FFE00
003FFE00
00000000
00000000
00000000
00000000
00000000
00000000
00000000
00000000
00000000
00000000
00000000
00000000
ENDCHAR
STARTCHAR FEMININE ORDINAL INDICATOR
ENCODING 170
SWIDTH 1250 0
DWIDTH 30 0
BBX 30 60 0 -5
BITMAP
003FFE00
003FFE00
01FFFF80
01FFFF80
01FFFF80
01F80F80
01F80F80
01FFFF80
000FFF80
000FFF80
003FFF80
003FFF80
01FFFF80
01F80F80
01F80F80
01FFFF80
01FFFF80
01FFFF80
003FFF80
003FFF80
00000000
00000000
01FFFF80
01FFFF80
01FFFF80
01FFFF80
01FFFF80
01FFFF80
00000000
00000000
00000000
00000000
00000000
00000000
00000000
00000000
00000000
00000000
00000000
00000000
00000000
00000000
00000000
00000000
00000000
00000000
00000000
00000000
00000000
00000000
00000000
00000000
00000000
00000000
00000000
00000000
00000000
00000000
00000000
00000000
ENDCHAR
STARTCHAR LEFT ANGLE QUOTATION MARK
ENCODING 171
SWIDTH 1250 0
DWIDTH 30 0
BBX 30 60 0 -5
BITMAP
00000000
00000000
00000000
00000000
00000000
00000000
00000000
00000000
00000000
00000000
0001F3F0
0001F3F0
000FFFF0
000FCF80
000FCF80
000FCF80
000FCF80
003FFF80
003E7E00
003E7E00
003E7E00
003E7E00
01FFFE00
01F9F000
01F9F000
01F9F000
01F9F000
07FFF000
07CFC000
07CFC000
07CFC000
07CFC000
07FFF000
01F9F000
01F9F000
01F9F000
01F9F000
01FFFE00
003E7E00
003E7E00
003E7E00
003E7E00
003FFF80
000FCF80
000FCF80
000FCF80
000FCF80
000FFFF0
0001F3F0
0001F3F0
00000000
00000000
00000000
00000000
00000000
00000000
00000000
00000000
00000000
00000000
ENDCHAR
STARTCHAR NOT SIGN
ENCODING 172
SWIDTH 1250 0
DWIDTH 30 0
BBX 30 60 0 -5
BITMAP
00000000
00000000
00000000
00000000
00000000
00000000
00000000
00000000
00000000
00000000
00000000
00000000
00000000
00000000
00000000
00000000
00000000
00000000
00000000
00000000
00000000
00000000
00000000
00000000
00000000
00000000
00000000
3FFFFFF0
3FFFFFF0
3FFFFFF0
3FFFFFF0
3FFFFFF0
3FFFFFF0
000003F0
000003F0
000003F0
000003F0
000003F0
000003F0
000003F0
00000000
00000000
00000000
00000000
00000000
00000000
00000000
00000000
00000000
00000000
00000000
00000000
00000000
00000000
00000000
00000000
00000000
00000000
00000000
00000000
ENDCHAR
STARTCHAR SOFT HYPHEN
ENCODING 173
SWIDTH 1250 0
DWIDTH 30 0
BBX 30 60 0 -5
BITMAP
00000000
00000000
00000000
00000000
00000000
00000000
00000000
00000000
00000000
00000000
00000000
00000000
00000000
00000000
00000000
00000000
00000000
00000000
00000000
00000000
00000000
00000000
00000000
00000000
00000000
00000000
00000000
00000000
00000000
00000000
3FFFFFF0
3FFFFFF0
3FFFFFF0
3FFFFFF0
3FFFFFF0
00000000
00000000
00000000
00000000
00000000
00000000
00000000
00000000
00000000
00000000
00000000
00000000
00000000
00000000
00000000
00000000
00000000
00000000
00000000
00000000
00000000
00000000
00000000
00000000
00000000
ENDCHAR
STARTCHAR REGISTERED TRADE MARK SIGN
ENCODING 174
SWIDTH 1250 0
DWIDTH 30 0
BBX 30 60 0 -5
BITMAP
00000000
00000000
00000000
00000000
00000000
00000000
00000000
00000000
00000000
00000000
003FFE00
003FFE00
01FFFF80
01FFFF80
01FFFF80
07F80FF0
07F80FF0
07F80FF0
07C003F0
07C003F0
3F3FF07C
3F3FF07C
3F3FFE7C
3F3E7E7C
3F3E7E7C
3F3E7E7C
3F3E7E7C
3F3FFE7C
3F3FF07C
3F3FF07C
3F3FF07C
3F3FF07C
3F3FFE7C
3F3E7E7C
3F3E7E7C
3F3E0E7C
3F3E0E7C
3FFE0FFC
07C003F0
07C003F0
07F80FF0
07F80FF0
07FFFFF0
01FFFF80
01FFFF80
003FFE00
003FFE00
003FFE00
00000000
00000000
00000000
00000000
00000000
00000000
00000000
00000000
00000000
00000000
00000000
00000000
ENDCHAR
STARTCHAR MACRON
ENCODING 175
SWIDTH 1250 0
DWIDTH 30 0
BBX 30 60 0 -5
BITMAP
3FFFFFF0
3FFFFFF0
3FFFFFF0
3FFFFFF0
3FFFFFF0
00000000
00000000
00000000
00000000
00000000
00000000
00000000
00000000
00000000
00000000
00000000
00000000
00000000
00000000
00000000
00000000
00000000
00000000
00000000
00000000
00000000
00000000
00000000
00000000
00000000
00000000
00000000
00000000
00000000
00000000
00000000
00000000
00000000
00000000
00000000
00000000
00000000
00000000
00000000
00000000
00000000
00000000
00000000
00000000
00000000
00000000
00000000
00000000
00000000
00000000
00000000
00000000
00000000
00000000
00000000
ENDCHAR
STARTCHAR DEGREE SIGN, RING ABOVE
ENCODING 176
SWIDTH 1250 0
DWIDTH 30 0
BBX 30 60 0 -5
BITMAP
000FF000
000FF000
003FFE00
003E7E00
003E7E00
003E7E00
003E7E00
003FFE00
000FF000
000FF000
00000000
00000000
00000000
00000000
00000000
00000000
00000000
00000000
00000000
00000000
00000000
00000000
00000000
00000000
00000000
00000000
00000000
00000000
00000000
00000000
00000000
00000000
00000000
00000000
00000000
00000000
00000000
00000000
00000000
00000000
00000000
00000000
00000000
00000000
00000000
00000000
00000000
00000000
00000000
00000000
00000000
00000000
00000000
00000000
00000000
00000000
00000000
00000000
00000000
00000000
ENDCHAR
STARTCHAR PLUS-MINUS SIGN
ENCODING 177
SWIDTH 1250 0
DWIDTH 30 0
BBX 30 60 0 -5
BITMAP
00000000
00000000
00000000
00000000
00000000
00000000
00000000
00000000
00000000
00000000
00000000
00000000
00000000
00000000
00000000
000FC000
000FC000
000FC000
000FC000
000FC000
000FC000
000FC000
07FFFF80
07FFFF80
07FFFF80
07FFFF80
07FFFF80
07FFFF80
000FC000
000FC000
000FC000
000FC000
000FC000
000FC000
000FC000
00000000
00000000
00000000
00000000
00000000
07FFFF80
07FFFF80
07FFFF80
07FFFF80
07FFFF80
00000000
00000000
00000000
00000000
00000000
00000000
00000000
00000000
00000000
00000000
00000000
00000000
00000000
00000000
00000000
ENDCHAR
STARTCHAR SUPERSCRIPT TWO
ENCODING 178
SWIDTH 1250 0
DWIDTH 30 0
BBX 30 60 0 -5
BITMAP
003FFE00
003FFE00
01FFFF80
01FFFF80
01FFFF80
01F80F80
01F80F80
01F87F80
00007F80
00007F80
0001FE00
0001FE00
000FFE00
000FF000
000FF000
003FC000
003FC000
01FFC000
01FE0000
01FE0000
01FFFF80
01FFFF80
01FFFF80
01FFFF80
01FFFF80
00000000
00000000
00000000
00000000
00000000
00000000
00000000
00000000
00000000
00000000
00000000
00000000
00000000
00000000
00000000
00000000
00000000
00000000
00000000
00000000
00000000
00000000
00000000
00000000
00000000
00000000
00000000
00000000
00000000
00000000
00000000
00000000
00000000
00000000
00000000
ENDCHAR
STARTCHAR SUPERSCRIPT THREE
ENCODING 179
SWIDTH 1250 0
DWIDTH 30 0
BBX 30 60 0 -5
BITMAP
003FFE00
003FFE00
01FFFF80
01FFFF80
01FFFF80
01F80F80
01F80F80
01F80F80
00000F80
00000F80
000FFF80
000FFF80
000FFF80
000FFF80
000FFF80
00000F80
00000F80
01F80F80
01F80F80
01F80F80
01FFFF80
01FFFF80
01FFFF80
003FFE00
003FFE00
00000000
00000000
00000000
00000000
00000000
00000000
00000000
00000000
00000000
00000000
00000000
00000000
00000000
00000000
00000000
00000000
00000000
00000000
00000000
00000000
00000000
00000000
00000000
00000000
00000000
00000000
00000000
00000000
00000000
00000000
00000000
00000000
00000000
00000000
00000000
ENDCHAR
STARTCHAR ACUTE ACCENT
ENCODING 180
SWIDTH 1250 0
DWIDTH 30 0
BBX 30 60 0 -5
BITMAP
0001F000
0001F000
000FF000
000FF000
000FF000
003E0000
003E0000
003E0000
00000000
00000000
00000000
00000000
00000000
00000000
00000000
00000000
00000000
00000000
00000000
00000000
00000000
00000000
00000000
00000000
00000000
00000000
00000000
00000000
00000000
00000000
00000000
00000000
00000000
00000000
00000000
00000000
00000000
00000000
00000000
00000000
00000000
00000000
00000000
00000000
00000000
00000000
00000000
00000000
00000000
00000000
00000000
00000000
00000000
00000000
00000000
00000000
00000000
00000000
00000000
00000000
ENDCHAR
STARTCHAR MICRO SIGN
ENCODING 181
SWIDTH 1250 0
DWIDTH 30 0
BBX 30 60 0 -5
BITMAP
00000000
00000000
00000000
00000000
00000000
00000000
00000000
00000000
00000000
00000000
00000000
00000000
00000000
00000000
00000000
00000000
00000000
00000000
00000000
00000000
00000000
00000000
000FC3F0
000FC3F0
000FC3F0
000FC3F0
000FC3F0
000FC3F0
000FC3F0
000FC3F0
000FC3F0
000FC3F0
003FCFF0
003FCF80
003FCF80
003E0F80
003E0F80
003E0F80
003E0F80
003E0F80
003FFFF0
003FFFF0
01FFFFF0
01FFFFF0
01FFFFF0
01F803F0
01F803F0
01F803F0
01F80000
01F80000
07F80000
07F80000
07F80000
07C00000
07C00000
07C00000
07C00000
07C00000
07C00000
07C00000
ENDCHAR
STARTCHAR PILCROW SIGN
ENCODING 182
SWIDTH 1250 0
DWIDTH 30 0
BBX 30 60 0 -5
BITMAP
00000000
00000000
00000000
00000000
00000000
00000000
00000000
00000000
00000000
00000000
00000000
00000000
003FFFF0
003FFFF0
003FFFF0
01FFFE70
01FFFE70
07FFFE70
07FFFE70
07FFFE70
07FFFE70
07FFFE70
07FFFE70
07FFFE70
07FFFE70
07FFFE70
07FFFE70
07FFFE70
01FFFE70
01FFFE70
003FFE70
003FFE70
003FFE70
00000E70
00000E70
00000E70
00000E70
00000E70
00000E70
00000E70
00000E70
00000E70
00000E70
00000E70
00000E70
00000FF0
00000FF0
00000FF0
00000000
00000000
00000000
00000000
00000000
00000000
00000000
00000000
00000000
00000000
00000000
00000000
ENDCHAR
STARTCHAR MIDDLE DOT
ENCODING 183
SWIDTH 1250 0
DWIDTH 30 0
BBX 30 60 0 -5
BITMAP
00000000
00000000
00000000
00000000
00000000
00000000
00000000
00000000
00000000
00000000
00000000
00000000
00000000
00000000
00000000
00000000
00000000
00000000
00000000
00000000
00000000
00000000
00000000
00000000
00000000
000FC000
000FC000
003FF000
003FF000
003FF000
003FF000
003FF000
003FF000
000FC000
000FC000
00000000
00000000
00000000
00000000
00000000
00000000
00000000
00000000
00000000
00000000
00000000
00000000
00000000
00000000
00000000
00000000
00000000
00000000
00000000
00000000
00000000
00000000
00000000
00000000
00000000
ENDCHAR
STARTCHAR CEDILLA
ENCODING 184
SWIDTH 1250 0
DWIDTH 30 0
BBX 30 60 0 -5
BITMAP
00000000
00000000
00000000
00000000
00000000
00000000
00000000
00000000
00000000
00000000
00000000
00000000
00000000
00000000
00000000
00000000
00000000
00000000
00000000
00000000
00000000
00000000
00000000
00000000
00000000
00000000
00000000
00000000
00000000
00000000
00000000
00000000
00000000
00000000
00000000
00000000
00000000
00000000
00000000
00000000
00000000
00000000
00000000
00000000
00000000
000FC000
000FC000
000FC000
000FC000
000FC000
000FF000
000FF000
000FFE00
00007E00
00007E00
003FFE00
003FFE00
003FFE00
003FF000
003FF000
ENDCHAR
STARTCHAR SUPERSCRIPT ONE
ENCODING 185
SWIDTH 1250 0
DWIDTH 30 0
BBX 30 60 0 -5
BITMAP
000FC000
000FC000
003FC000
003FC000
003FC000
01FFC000
01FFC000
01FFC000
000FC000
000FC000
000FC000
000FC000
000FC000
000FC000
000FC000
000FC000
000FC000
000FC000
000FC000
000FC000
01FFFE00
01FFFE00
01FFFE00
01FFFE00
01FFFE00
00000000
00000000
00000000
00000000
00000000
00000000
00000000
00000000
00000000
00000000
00000000
00000000
00000000
00000000
00000000
00000000
00000000
00000000
00000000
00000000
00000000
00000000
00000000
00000000
00000000
00000000
00000000
00000000
00000000
00000000
00000000
00000000
00000000
00000000
00000000
ENDCHAR
STARTCHAR MASCULINE ORDINAL INDICATOR
ENCODING 186
SWIDTH 1250 0
DWIDTH 30 0
BBX 30 60 0 -5
BITMAP
003FFE00
003FFE00
01FFFF80
01FFFF80
01FFFF80
01F80F80
01F80F80
01F80F80
01F80F80
01F80F80
01F80F80
01F80F80
01F80F80
01F80F80
01F80F80
01FFFF80
01FFFF80
01FFFF80
003FFE00
003FFE00
00000000
00000000
01FFFF80
01FFFF80
01FFFF80
01FFFF80
01FFFF80
01FFFF80
00000000
00000000
00000000
00000000
00000000
00000000
00000000
00000000
00000000
00000000
00000000
00000000
00000000
00000000
00000000
00000000
00000000
00000000
00000000
00000000
00000000
00000000
00000000
00000000
00000000
00000000
00000000
00000000
00000000
00000000
00000000
00000000
ENDCHAR
STARTCHAR RIGHT ANGLE QUOTATION MARK
ENCODING 187
SWIDTH 1250 0
DWIDTH 30 0
BBX 30 60 0 -5
BITMAP
00000000
00000000
00000000
00000000
00000000
00000000
00000000
00000000
00000000
00000000
07CFC000
07CFC000
07FFF000
01F9F000
01F9F000
01F9F000
01F9F000
01FFFE00
003E7E00
003E7E00
003E7E00
003E7E00
003FFF80
000FCF80
000FCF80
000FCF80
000FCF80
000FFFF0
0001F3F0
0001F3F0
0001F3F0
0001F3F0
000FFFF0
000FCF80
000FCF80
000FCF80
000FCF80
003FFF80
003E7E00
003E7E00
003E7E00
003E7E00
01FFFE00
01F9F000
01F9F000
01F9F000
01F9F000
07FFF000
07CFC000
07CFC000
00000000
00000000
00000000
00000000
00000000
00000000
00000000
00000000
00000000
00000000
ENDCHAR
STARTCHAR VULGAR FRACTION ONE QUARTER
ENCODING 188
SWIDTH 1250 0
DWIDTH 30 0
BBX 30 60 0 -5
BITMAP
00000000
00000000
00000000
00000000
00000000
01F80000
01F80000
07F80000
07F80000
07F80000
01F80000
01F80000
01F80000
01F80000
01F80000
01F80000
01F80000
01F803F0
01F803F0
01F803F0
07FE0FF0
07FE0FF0
07FE7FF0
07FE7F80
07FE7F80
0001FE00
0001FE00
000FFE00
000FF000
000FF000
003FC000
003FC000
01FFCF80
01FE0F80
01FE0F80
07F87F80
07F87F80
3FF9FF80
3FC1FF80
3FC1FF80
3F0FCF80
3F0FCF80
3F0FFFF0
000FFFF0
000FFFF0
000FFFF0
000FFFF0
000FFFF0
00000F80
00000F80
00000F80
00000F80
00000F80
00000000
00000000
00000000
00000000
00000000
00000000
00000000
ENDCHAR
STARTCHAR VULGAR FRACTION ONE HALF
ENCODING 189
SWIDTH 1250 0
DWIDTH 30 0
BBX 30 60 0 -5
BITMAP
00000000
00000000
00000000
00000000
00000000
01F80000
01F80000
07F80000
07F80000
07F80000
01F80000
01F80000
01F80000
01F80000
01F80000
01F80000
01F80000
01F803F0
01F803F0
01F803F0
07FE0FF0
07FE0FF0
07FE7FF0
07FE7F80
07FE7F80
0001FE00
0001FE00
000FFE00
000FF000
000FF000
003FC000
003FC000
01FFFF80
01FE7F80
01FE7F80
07F9FFF0
07F9FFF0
3FF9FFF0
3FC1F3F0
3FC1F3F0
3F0003F0
3F0003F0
3F000FF0
00000F80
00000F80
00007E00
00007E00
0001FFF0
0001FFF0
0001FFF0
0001FFF0
0001FFF0
0001FFF0
00000000
00000000
00000000
00000000
00000000
00000000
00000000
ENDCHAR
STARTCHAR VULGAR FRACTION THREE QUARTERS
ENCODING 190
SWIDTH 1250 0
DWIDTH 30 0
BBX 30 60 0 -5
BITMAP
00000000
00000000
00000000
00000000
00000000
07FE0000
07FE0000
07FFC000
07FFC000
07FFC000
000FC000
000FC000
01FFC000
01FE0000
01FE0000
01FE0000
01FE0000
01FFC3F0
000FC3F0
000FC3F0
07FFCFF0
07FFCFF0
07FFFFF0
07FE7F80
07FE7F80
0001FE00
0001FE00
000FFE00
000FF000
000FF000
003FC000
003FC000
01FFCF80
01FE0F80
01FE0F80
07F87F80
07F87F80
3FF9FF80
3FC1FF80
3FC1FF80
3F0FCF80
3F0FCF80
3F0FFFF0
000FFFF0
000FFFF0
000FFFF0
000FFFF0
000FFFF0
00000F80
00000F80
00000F80
00000F80
00000F80
00000000
00000000
00000000
00000000
00000000
00000000
00000000
ENDCHAR
STARTCHAR INVERTED QUESTION MARK
ENCODING 191
SWIDTH 1250 0
DWIDTH 30 0
BBX 30 60 0 -5
BITMAP
00000000
00000000
00000000
00000000
00000000
00000000
00000000
00000000
00000000
00000000
000FC000
000FC000
003FF000
003FF000
003FF000
000FC000
000FC000
000FC000
00000000
00000000
00000000
00000000
000FC000
000FC000
000FC000
000FC000
000FC000
000FC000
000FC000
000FC000
003E0000
003E0000
01FE0000
01F80000
01F80000
07C00000
07C00000
07C00380
07C00380
07C00380
07F87F80
07F87F80
07FFFF80
01FFFE00
01FFFE00
003FF000
003FF000
003FF000
00000000
00000000
00000000
00000000
00000000
00000000
00000000
00000000
00000000
00000000
00000000
00000000
ENDCHAR
STARTCHAR CAPITAL LETTER A WITH GRAVE ACCENT
ENCODING 192
SWIDTH 1250 0
DWIDTH 30 0
BBX 30 60 0 -5
BITMAP
000FC000
000FC000
000FF000
000FF000
000FF000
00007E00
00007E00
00007E00
00000000
00000000
00000000
00000000
003FFE00
003FFE00
003FFE00
01FFFF80
01FFFF80
07FFFFF0
07F80FF0
07F80FF0
07C003F0
07C003F0
07C003F0
07C003F0
07C003F0
07C003F0
07C003F0
07FFFFF0
07FFFFF0
07FFFFF0
07FFFFF0
07FFFFF0
07FFFFF0
07C003F0
07C003F0
07C003F0
07C003F0
07C003F0
07C003F0
07C003F0
07C003F0
07C003F0
07C003F0
07C003F0
07C003F0
07C003F0
07C003F0
07C003F0
00000000
00000000
00000000
00000000
00000000
00000000
00000000
00000000
00000000
00000000
00000000
00000000
ENDCHAR
STARTCHAR CAPITAL LETTER A WITH ACUTE ACCENT
ENCODING 193
SWIDTH 1250 0
DWIDTH 30 0
BBX 30 60 0 -5
BITMAP
0001F000
0001F000
000FF000
000FF000
000FF000
003E0000
003E0000
003E0000
00000000
00000000
00000000
00000000
003FFE00
003FFE00
003FFE00
01FFFF80
01FFFF80
07FFFFF0
07F80FF0
07F80FF0
07C003F0
07C003F0
07C003F0
07C003F0
07C003F0
07C003F0
07C003F0
07FFFFF0
07FFFFF0
07FFFFF0
07FFFFF0
07FFFFF0
07FFFFF0
07C003F0
07C003F0
07C003F0
07C003F0
07C003F0
07C003F0
07C003F0
07C003F0
07C003F0
07C003F0
07C003F0
07C003F0
07C003F0
07C003F0
07C003F0
00000000
00000000
00000000
00000000
00000000
00000000
00000000
00000000
00000000
00000000
00000000
00000000
ENDCHAR
STARTCHAR CAPITAL LETTER A WITH CIRCUMFLEX ACCENT
ENCODING 194
SWIDTH 1250 0
DWIDTH 30 0
BBX 30 60 0 -5
BITMAP
000FF000
000FF000
003FFE00
003FFE00
003FFE00
01F80F80
01F80F80
01F80F80
00000000
00000000
00000000
00000000
003FFE00
003FFE00
003FFE00
01FFFF80
01FFFF80
07FFFFF0
07F80FF0
07F80FF0
07C003F0
07C003F0
07C003F0
07C003F0
07C003F0
07C003F0
07C003F0
07FFFFF0
07FFFFF0
07FFFFF0
07FFFFF0
07FFFFF0
07FFFFF0
07C003F0
07C003F0
07C003F0
07C003F0
07C003F0
07C003F0
07C003F0
07C003F0
07C003F0
07C003F0
07C003F0
07C003F0
07C003F0
07C003F0
07C003F0
00000000
00000000
00000000
00000000
00000000
00000000
00000000
00000000
00000000
00000000
00000000
00000000
ENDCHAR
STARTCHAR CAPITAL LETTER A WITH TILDE
ENCODING 195
SWIDTH 1250 0
DWIDTH 30 0
BBX 30 60 0 -5
BITMAP
01FE0070
01FE0070
07FFC3F0
07CFC3F0
07CFC3F0
0701FF80
0701FF80
0701FF80
00000000
00000000
00000000
00000000
003FFE00
003FFE00
003FFE00
01FFFF80
01FFFF80
07FFFFF0
07F80FF0
07F80FF0
07C003F0
07C003F0
07C003F0
07C003F0
07C003F0
07C003F0
07C003F0
07FFFFF0
07FFFFF0
07FFFFF0
07FFFFF0
07FFFFF0
07FFFFF0
07C003F0
07C003F0
07C003F0
07C003F0
07C003F0
07C003F0
07C003F0
07C003F0
07C003F0
07C003F0
07C003F0
07C003F0
07C003F0
07C003F0
07C003F0
00000000
00000000
00000000
00000000
00000000
00000000
00000000
00000000
00000000
00000000
00000000
00000000
ENDCHAR
STARTCHAR CAPITAL LETTER A WITH DIAERESIS
ENCODING 196
SWIDTH 1250 0
DWIDTH 30 0
BBX 30 60 0 -5
BITMAP
00000000
00000000
01F80F80
01F80F80
01F80F80
01F80F80
01F80F80
01F80F80
00000000
00000000
00000000
00000000
003FFE00
003FFE00
003FFE00
01FFFF80
01FFFF80
07FFFFF0
07F80FF0
07F80FF0
07C003F0
07C003F0
07C003F0
07C003F0
07C003F0
07C003F0
07C003F0
07FFFFF0
07FFFFF0
07FFFFF0
07FFFFF0
07FFFFF0
07FFFFF0
07C003F0
07C003F0
07C003F0
07C003F0
07C003F0
07C003F0
07C003F0
07C003F0
07C003F0
07C003F0
07C003F0
07C003F0
07C003F0
07C003F0
07C003F0
00000000
00000000
00000000
00000000
00000000
00000000
00000000
00000000
00000000
00000000
00000000
00000000
ENDCHAR
STARTCHAR CAPITAL LETTER A WITH RING ABOVE
ENCODING 197
SWIDTH 1250 0
DWIDTH 30 0
BBX 30 60 0 -5
BITMAP
000FF000
000FF000
003FFE00
003E7E00
003E7E00
003E7E00
003E7E00
003FFE00
000FF000
000FF000
00000000
00000000
003FFE00
003FFE00
003FFE00
01FFFF80
01FFFF80
07FFFFF0
07F80FF0
07F80FF0
07C003F0
07C003F0
07C003F0
07C003F0
07C003F0
07C003F0
07C003F0
07FFFFF0
07FFFFF0
07FFFFF0
07FFFFF0
07FFFFF0
07FFFFF0
07C003F0
07C003F0
07C003F0
07C003F0
07C003F0
07C003F0
07C003F0
07C003F0
07C003F0
07C003F0
07C003F0
07C003F0
07C003F0
07C003F0
07C003F0
00000000
00000000
00000000
00000000
00000000
00000000
00000000
00000000
00000000
00000000
00000000
00000000
ENDCHAR
STARTCHAR CAPITAL DIPHTHONG A WITH E
ENCODING 198
SWIDTH 1250 0
DWIDTH 30 0
BBX 30 60 0 -5
BITMAP
00000000
00000000
00000000
00000000
00000000
00000000
00000000
00000000
00000000
00000000
00000000
00000000
01FFFFF0
01FFFFF0
01FFFFF0
01FFFFF0
01FFFFF0
07FFFFF0
07C1F000
07C1F000
07C1F000
07C1F000
3FC1F000
3F01F000
3F01F000
3F01FFF0
3F01FFF0
3FFFFFF0
3FFFFFF0
3FFFFFF0
3FFFF000
3FFFF000
3FFFF000
3F01F000
3F01F000
3F01F000
3F01F000
3F01F000
3F01F000
3F01F000
3F01F000
3F01F000
3F01FFF0
3F01FFF0
3F01FFF0
3F01FFF0
3F01FFF0
3F01FFF0
00000000
00000000
00000000
00000000
00000000
00000000
00000000
00000000
00000000
00000000
00000000
00000000
ENDCHAR
STARTCHAR CAPITAL LETTER C WITH CEDILLA
ENCODING 199
SWIDTH 1250 0
DWIDTH 30 0
BBX 30 60 0 -5
BITMAP
00000000
00000000
00000000
00000000
00000000
00000000
00000000
00000000
00000000
00000000
00000000
00000000
003FFE00
003FFE00
003FFE00
01FFFF80
01FFFF80
07FFFFF0
07F80FF0
07F80FF0
07C003F0
07C003F0
07C003F0
07C00000
07C00000
07C00000
07C00000
07C00000
07C00000
07C00000
07C00000
07C00000
07C00000
07C00000
07C00000
07C00000
07C00000
07C003F0
07C003F0
07C003F0
07F80FF0
07F80FF0
07FFFFF0
01FFFF80
01FFFF80
003FFE00
003FFE00
003FFE00
000FC000
000FC000
000FF000
000FF000
000FFE00
00007E00
00007E00
003FFE00
003FFE00
003FFE00
003FF000
003FF000
ENDCHAR
STARTCHAR CAPITAL LETTER E WITH GRAVE ACCENT
ENCODING 200
SWIDTH 1250 0
DWIDTH 30 0
BBX 30 60 0 -5
BITMAP
000FC000
000FC000
000FF000
000FF000
000FF000
00007E00
00007E00
00007E00
00000000
00000000
00000000
00000000
07FFFFF0
07FFFFF0
07FFFFF0
07FFFFF0
07FFFFF0
07FFFFF0
07C00000
07C00000
07C00000
07C00000
07C00000
07C00000
07C00000
07C00000
07C00000
07FFFE00
07FFFE00
07FFFE00
07FFFE00
07FFFE00
07FFFE00
07C00000
07C00000
07C00000
07C00000
07C00000
07C00000
07C00000
07C00000
07C00000
07FFFFF0
07FFFFF0
07FFFFF0
07FFFFF0
07FFFFF0
07FFFFF0
00000000
00000000
00000000
00000000
00000000
00000000
00000000
00000000
00000000
00000000
00000000
00000000
ENDCHAR
STARTCHAR CAPITAL LETTER E WITH ACUTE ACCENT
ENCODING 201
SWIDTH 1250 0
DWIDTH 30 0
BBX 30 60 0 -5
BITMAP
0001F000
0001F000
000FF000
000FF000
000FF000
003E0000
003E0000
003E0000
00000000
00000000
00000000
00000000
07FFFFF0
07FFFFF0
07FFFFF0
07FFFFF0
07FFFFF0
07FFFFF0
07C00000
07C00000
07C00000
07C00000
07C00000
07C00000
07C00000
07C00000
07C00000
07FFFE00
07FFFE00
07FFFE00
07FFFE00
07FFFE00
07FFFE00
07C00000
07C00000
07C00000
07C00000
07C00000
07C00000
07C00000
07C00000
07C00000
07FFFFF0
07FFFFF0
07FFFFF0
07FFFFF0
07FFFFF0
07FFFFF0
00000000
00000000
00000000
00000000
00000000
00000000
00000000
00000000
00000000
00000000
00000000
00000000
ENDCHAR
STARTCHAR CAPITAL LETTER E WITH CIRCUMFLEX ACCENT
ENCODING 202
SWIDTH 1250 0
DWIDTH 30 0
BBX 30 60 0 -5
BITMAP
000FF000
000FF000
003FFE00
003FFE00
003FFE00
01F80F80
01F80F80
01F80F80
00000000
00000000
00000000
00000000
07FFFFF0
07FFFFF0
07FFFFF0
07FFFFF0
07FFFFF0
07FFFFF0
07C00000
07C00000
07C00000
07C00000
07C00000
07C00000
07C00000
07C00000
07C00000
07FFFE00
07FFFE00
07FFFE00
07FFFE00
07FFFE00
07FFFE00
07C00000
07C00000
07C00000
07C00000
07C00000
07C00000
07C00000
07C00000
07C00000
07FFFFF0
07FFFFF0
07FFFFF0
07FFFFF0
07FFFFF0
07FFFFF0
00000000
00000000
00000000
00000000
00000000
00000000
00000000
00000000
00000000
00000000
00000000
00000000
ENDCHAR
STARTCHAR CAPITAL LETTER E WITH DIAERESIS
ENCODING 203
SWIDTH 1250 0
DWIDTH 30 0
BBX 30 60 0 -5
BITMAP
00000000
00000000
01F80F80
01F80F80
01F80F80
01F80F80
01F80F80
01F80F80
00000000
00000000
00000000
00000000
07FFFFF0
07FFFFF0
07FFFFF0
07FFFFF0
07FFFFF0
07FFFFF0
07C00000
07C00000
07C00000
07C00000
07C00000
07C00000
07C00000
07C00000
07C00000
07FFFE00
07FFFE00
07FFFE00
07FFFE00
07FFFE00
07FFFE00
07C00000
07C00000
07C00000
07C00000
07C00000
07C00000
07C00000
07C00000
07C00000
07FFFFF0
07FFFFF0
07FFFFF0
07FFFFF0
07FFFFF0
07FFFFF0
00000000
00000000
00000000
00000000
00000000
00000000
00000000
00000000
00000000
00000000
00000000
00000000
ENDCHAR
STARTCHAR CAPITAL LETTER I WITH GRAVE ACCENT
ENCODING 204
SWIDTH 1250 0
DWIDTH 30 0
BBX 30 60 0 -5
BITMAP
003E0000
003E0000
003FC000
003FC000
003FC000
0001F000
0001F000
0001F000
00000000
00000000
00000000
00000000
01FFFE00
01FFFE00
01FFFE00
01FFFE00
01FFFE00
01FFFE00
000FC000
000FC000
000FC000
000FC000
000FC000
000FC000
000FC000
000FC000
000FC000
000FC000
000FC000
000FC000
000FC000
000FC000
000FC000
000FC000
000FC000
000FC000
000FC000
000FC000
000FC000
000FC000
000FC000
000FC000
01FFFE00
01FFFE00
01FFFE00
01FFFE00
01FFFE00
01FFFE00
00000000
00000000
00000000
00000000
00000000
00000000
00000000
00000000
00000000
00000000
00000000
00000000
ENDCHAR
STARTCHAR CAPITAL LETTER I WITH ACUTE ACCENT
ENCODING 205
SWIDTH 1250 0
DWIDTH 30 0
BBX 30 60 0 -5
BITMAP
0001F000
0001F000
000FF000
000FF000
000FF000
003E0000
003E0000
003E0000
00000000
00000000
00000000
00000000
01FFFE00
01FFFE00
01FFFE00
01FFFE00
01FFFE00
01FFFE00
000FC000
000FC000
000FC000
000FC000
000FC000
000FC000
000FC000
000FC000
000FC000
000FC000
000FC000
000FC000
000FC000
000FC000
000FC000
000FC000
000FC000
000FC000
000FC000
000FC000
000FC000
000FC000
000FC000
000FC000
01FFFE00
01FFFE00
01FFFE00
01FFFE00
01FFFE00
01FFFE00
00000000
00000000
00000000
00000000
00000000
00000000
00000000
00000000
00000000
00000000
00000000
00000000
ENDCHAR
STARTCHAR CAPITAL LETTER I WITH CIRCUMFLEX ACCENT
ENCODING 206
SWIDTH 1250 0
DWIDTH 30 0
BBX 30 60 0 -5
BITMAP
000FC000
000FC000
003FF000
003FF000
003FF000
01F87E00
01F87E00
01F87E00
00000000
00000000
00000000
00000000
01FFFE00
01FFFE00
01FFFE00
01FFFE00
01FFFE00
01FFFE00
000FC000
000FC000
000FC000
000FC000
000FC000
000FC000
000FC000
000FC000
000FC000
000FC000
000FC000
000FC000
000FC000
000FC000
000FC000
000FC000
000FC000
000FC000
000FC000
000FC000
000FC000
000FC000
000FC000
000FC000
01FFFE00
01FFFE00
01FFFE00
01FFFE00
01FFFE00
01FFFE00
00000000
00000000
00000000
00000000
00000000
00000000
00000000
00000000
00000000
00000000
00000000
00000000
ENDCHAR
STARTCHAR CAPITAL LETTER I WITH DIAERESIS
ENCODING 207
SWIDTH 1250 0
DWIDTH 30 0
BBX 30 60 0 -5
BITMAP
00000000
00000000
01F87E00
01F87E00
01F87E00
01F87E00
01F87E00
01F87E00
00000000
00000000
00000000
00000000
01FFFE00
01FFFE00
01FFFE00
01FFFE00
01FFFE00
01FFFE00
000FC000
000FC000
000FC000
000FC000
000FC000
000FC000
000FC000
000FC000
000FC000
000FC000
000FC000
000FC000
000FC000
000FC000
000FC000
000FC000
000FC000
000FC000
000FC000
000FC000
000FC000
000FC000
000FC000
000FC000
01FFFE00
01FFFE00
01FFFE00
01FFFE00
01FFFE00
01FFFE00
00000000
00000000
00000000
00000000
00000000
00000000
00000000
00000000
00000000
00000000
00000000
00000000
ENDCHAR
STARTCHAR CAPITAL ICELANDIC LETTER ETH
ENCODING 208
SWIDTH 1250 0
DWIDTH 30 0
BBX 30 60 0 -5
BITMAP
00000000
00000000
00000000
00000000
00000000
00000000
00000000
00000000
00000000
00000000
00000000
00000000
07FFFE00
07FFFE00
07FFFE00
07FFFF80
07FFFF80
07FFFFF0
07C00FF0
07C00FF0
07C003F0
07C003F0
07C003F0
07C003F0
07C003F0
07C003F0
07C003F0
3FFFC3F0
3FFFC3F0
3FFFC3F0
3FFFC3F0
3FFFC3F0
3FFFC3F0
07C003F0
07C003F0
07C003F0
07C003F0
07C003F0
07C003F0
07C003F0
07C00FF0
07C00FF0
07FFFFF0
07FFFF80
07FFFF80
07FFFE00
07FFFE00
07FFFE00
00000000
00000000
00000000
00000000
00000000
00000000
00000000
00000000
00000000
00000000
00000000
00000000
ENDCHAR
STARTCHAR CAPITAL LETTER N WITH TILDE
ENCODING 209
SWIDTH 1250 0
DWIDTH 30 0
BBX 30 60 0 -5
BITMAP
01FE0070
01FE0070
07FFC3F0
07CFC3F0
07CFC3F0
0701FF80
0701FF80
0701FF80
00000000
00000000
00000000
00000000
07C003F0
07C003F0
07C003F0
07F803F0
07F803F0
07F803F0
07F803F0
07F803F0
07FE03F0
07FE03F0
07FE03F0
07FE03F0
07FE03F0
07CFC3F0
07CFC3F0
07CFC3F0
07CFC3F0
07CFC3F0
07C1F3F0
07C1F3F0
07C1F3F0
07C1F3F0
07C1F3F0
07C07FF0
07C07FF0
07C07FF0
07C07FF0
07C07FF0
07C00FF0
07C00FF0
07C00FF0
07C00FF0
07C00FF0
07C003F0
07C003F0
07C003F0
00000000
00000000
00000000
00000000
00000000
00000000
00000000
00000000
00000000
00000000
00000000
00000000
ENDCHAR
STARTCHAR CAPITAL LETTER O WITH GRAVE ACCENT
ENCODING 210
SWIDTH 1250 0
DWIDTH 30 0
BBX 30 60 0 -5
BITMAP
000FC000
000FC000
000FF000
000FF000
000FF000
00007E00
00007E00
00007E00
00000000
00000000
00000000
00000000
003FFE00
003FFE00
003FFE00
01FFFF80
01FFFF80
07FFFFF0
07F80FF0
07F80FF0
07C003F0
07C003F0
07C003F0
07C003F0
07C003F0
07C003F0
07C003F0
07C003F0
07C003F0
07C003F0
07C003F0
07C003F0
07C003F0
07C003F0
07C003F0
07C003F0
07C003F0
07C003F0
07C003F0
07C003F0
07F80FF0
07F80FF0
07FFFFF0
01FFFF80
01FFFF80
003FFE00
003FFE00
003FFE00
00000000
00000000
00000000
00000000
00000000
00000000
00000000
00000000
00000000
00000000
00000000
00000000
ENDCHAR
STARTCHAR CAPITAL LETTER O WITH ACUTE ACCENT
ENCODING 211
SWIDTH 1250 0
DWIDTH 30 0
BBX 30 60 0 -5
BITMAP
0001F000
0001F000
000FF000
000FF000
000FF000
003E0000
003E0000
003E0000
00000000
00000000
00000000
00000000
003FFE00
003FFE00
003FFE00
01FFFF80
01FFFF80
07FFFFF0
07F80FF0
07F80FF0
07C003F0
07C003F0
07C003F0
07C003F0
07C003F0
07C003F0
07C003F0
07C003F0
07C003F0
07C003F0
07C003F0
07C003F0
07C003F0
07C003F0
07C003F0
07C003F0
07C003F0
07C003F0
07C003F0
07C003F0
07F80FF0
07F80FF0
07FFFFF0
01FFFF80
01FFFF80
003FFE00
003FFE00
003FFE00
00000000
00000000
00000000
00000000
00000000
00000000
00000000
00000000
00000000
00000000
00000000
00000000
ENDCHAR
STARTCHAR CAPITAL LETTER O WITH CIRCUMFLEX ACCENT
ENCODING 212
SWIDTH 1250 0
DWIDTH 30 0
BBX 30 60 0 -5
BITMAP
000FF000
000FF000
003FFE00
003FFE00
003FFE00
01F80F80
01F80F80
01F80F80
00000000
00000000
00000000
00000000
003FFE00
003FFE00
003FFE00
01FFFF80
01FFFF80
07FFFFF0
07F80FF0
07F80FF0
07C003F0
07C003F0
07C003F0
07C003F0
07C003F0
07C003F0
07C003F0
07C003F0
07C003F0
07C003F0
07C003F0
07C003F0
07C003F0
07C003F0
07C003F0
07C003F0
07C003F0
07C003F0
07C003F0
07C003F0
07F80FF0
07F80FF0
07FFFFF0
01FFFF80
01FFFF80
003FFE00
003FFE00
003FFE00
00000000
00000000
00000000
00000000
00000000
00000000
00000000
00000000
00000000
00000000
00000000
00000000
ENDCHAR
STARTCHAR CAPITAL LETTER O WITH TILDE
ENCODING 213
SWIDTH 1250 0
DWIDTH 30 0
BBX 30 60 0 -5
BITMAP
01FE0070
01FE0070
07FFC3F0
07CFC3F0
07CFC3F0
0701FF80
0701FF80
0701FF80
00000000
00000000
00000000
00000000
003FFE00
003FFE00
003FFE00
01FFFF80
01FFFF80
07FFFFF0
07F80FF0
07F80FF0
07C003F0
07C003F0
07C003F0
07C003F0
07C003F0
07C003F0
07C003F0
07C003F0
07C003F0
07C003F0
07C003F0
07C003F0
07C003F0
07C003F0
07C003F0
07C003F0
07C003F0
07C003F0
07C003F0
07C003F0
07F80FF0
07F80FF0
07FFFFF0
01FFFF80
01FFFF80
003FFE00
003FFE00
003FFE00
00000000
00000000
00000000
00000000
00000000
00000000
00000000
00000000
00000000
00000000
00000000
00000000
ENDCHAR
STARTCHAR CAPITAL LETTER O WITH DIAERESIS
ENCODING 214
SWIDTH 1250 0
DWIDTH 30 0
BBX 30 60 0 -5
BITMAP
00000000
00000000
01F80F80
01F80F80
01F80F80
01F80F80
01F80F80
01F80F80
00000000
00000000
00000000
00000000
003FFE00
003FFE00
003FFE00
01FFFF80
01FFFF80
07FFFFF0
07F80FF0
07F80FF0
07C003F0
07C003F0
07C003F0
07C003F0
07C003F0
07C003F0
07C003F0
07C003F0
07C003F0
07C003F0
07C003F0
07C003F0
07C003F0
07C003F0
07C003F0
07C003F0
07C003F0
07C003F0
07C003F0
07C003F0
07F80FF0
07F80FF0
07FFFFF0
01FFFF80
01FFFF80
003FFE00
003FFE00
003FFE00
00000000
00000000
00000000
00000000
00000000
00000000
00000000
00000000
00000000
00000000
00000000
00000000
ENDCHAR
STARTCHAR MULTIPLICATION SIGN
ENCODING 215
SWIDTH 1250 0
DWIDTH 30 0
BBX 30 60 0 -5
BITMAP
00000000
00000000
00000000
00000000
00000000
00000000
00000000
00000000
00000000
00000000
00000000
00000000
00000000
00000000
00000000
00000000
00000000
00000000
00000000
00000000
07C003F0
07C003F0
07F80FF0
07F80FF0
07F80FF0
01FE7F80
01FE7F80
01FFFF80
003FFE00
003FFE00
000FF000
000FF000
003FFE00
003FFE00
003FFE00
01FE7F80
01FE7F80
07FE7FF0
07F80FF0
07F80FF0
07C003F0
07C003F0
07C003F0
00000000
00000000
00000000
00000000
00000000
00000000
00000000
00000000
00000000
00000000
00000000
00000000
00000000
00000000
00000000
00000000
00000000
ENDCHAR
STARTCHAR CAPITAL LETTER O WITH OBLIQUE STROKE
ENCODING 216
SWIDTH 1250 0
DWIDTH 30 0
BBX 30 60 0 -5
BITMAP
00000000
00000000
00000000
00000000
00000000
00000000
00000000
00000000
00000000
00000000
00000000
00000000
003FFE70
003FFE70
003FFE70
01FFFFF0
01FFFFF0
07FFFFF0
07F80FF0
07F80FF0
07C00FF0
07C00FF0
07C07FF0
07C07FF0
07C07FF0
07C073F0
07C073F0
07C1F3F0
07C1F3F0
07C1F3F0
07CFC3F0
07CFC3F0
07CFC3F0
07CE03F0
07CE03F0
07FE03F0
07FE03F0
07FE03F0
07F803F0
07F803F0
07F80FF0
07F80FF0
07FFFFF0
07FFFF80
07FFFF80
073FFE00
073FFE00
073FFE00
00000000
00000000
00000000
00000000
00000000
00000000
00000000
00000000
00000000
00000000
00000000
00000000
ENDCHAR
STARTCHAR CAPITAL LETTER U WITH GRAVE ACCENT
ENCODING 217
SWIDTH 1250 0
DWIDTH 30 0
BBX 30 60 0 -5
BITMAP
000FC000
000FC000
000FF000
000FF000
000FF000
00007E00
00007E00
00007E00
00000000
00000000
00000000
00000000
07C003F0
07C003F0
07C003F0
07C003F0
07C003F0
07C003F0
07C003F0
07C003F0
07C003F0
07C003F0
07C003F0
07C003F0
07C003F0
07C003F0
07C003F0
07C003F0
07C003F0
07C003F0
07C003F0
07C003F0
07C003F0
07C003F0
07C003F0
07C003F0
07C003F0
07C003F0
07C003F0
07C003F0
07F80FF0
07F80FF0
07FFFFF0
01FFFF80
01FFFF80
003FFE00
003FFE00
003FFE00
00000000
00000000
00000000
00000000
00000000
00000000
00000000
00000000
00000000
00000000
00000000
00000000
ENDCHAR
STARTCHAR CAPITAL LETTER U WITH ACUTE ACCENT
ENCODING 218
SWIDTH 1250 0
DWIDTH 30 0
BBX 30 60 0 -5
BITMAP
0001F000
0001F000
000FF000
000FF000
000FF000
003E0000
003E0000
003E0000
00000000
00000000
00000000
00000000
07C003F0
07C003F0
07C003F0
07C003F0
07C003F0
07C003F0
07C003F0
07C003F0
07C003F0
07C003F0
07C003F0
07C003F0
07C003F0
07C003F0
07C003F0
07C003F0
07C003F0
07C003F0
07C003F0
07C003F0
07C003F0
07C003F0
07C003F0
07C003F0
07C003F0
07C003F0
07C003F0
07C003F0
07F80FF0
07F80FF0
07FFFFF0
01FFFF80
01FFFF80
003FFE00
003FFE00
003FFE00
00000000
00000000
00000000
00000000
00000000
00000000
00000000
00000000
00000000
00000000
00000000
00000000
ENDCHAR
STARTCHAR CAPITAL LETTER U WITH CIRCUMFLEX ACCENT
ENCODING 219
SWIDTH 1250 0
DWIDTH 30 0
BBX 30 60 0 -5
BITMAP
000FF000
000FF000
003FFE00
003FFE00
003FFE00
01F80F80
01F80F80
01F80F80
00000000
00000000
00000000
00000000
07C003F0
07C003F0
07C003F0
07C003F0
07C003F0
07C003F0
07C003F0
07C003F0
07C003F0
07C003F0
07C003F0
07C003F0
07C003F0
07C003F0
07C003F0
07C003F0
07C003F0
07C003F0
07C003F0
07C003F0
07C003F0
07C003F0
07C003F0
07C003F0
07C003F0
07C003F0
07C003F0
07C003F0
07F80FF0
07F80FF0
07FFFFF0
01FFFF80
01FFFF80
003FFE00
003FFE00
003FFE00
00000000
00000000
00000000
00000000
00000000
00000000
00000000
00000000
00000000
00000000
00000000
00000000
ENDCHAR
STARTCHAR CAPITAL LETTER U WITH DIAERESIS
ENCODING 220
SWIDTH 1250 0
DWIDTH 30 0
BBX 30 60 0 -5
BITMAP
00000000
00000000
01F80F80
01F80F80
01F80F80
01F80F80
01F80F80
01F80F80
00000000
00000000
00000000
00000000
07C003F0
07C003F0
07C003F0
07C003F0
07C003F0
07C003F0
07C003F0
07C003F0
07C003F0
07C003F0
07C003F0
07C003F0
07C003F0
07C003F0
07C003F0
07C003F0
07C003F0
07C003F0
07C003F0
07C003F0
07C003F0
07C003F0
07C003F0
07C003F0
07C003F0
07C003F0
07C003F0
07C003F0
07F80FF0
07F80FF0
07FFFFF0
01FFFF80
01FFFF80
003FFE00
003FFE00
003FFE00
00000000
00000000
00000000
00000000
00000000
00000000
00000000
00000000
00000000
00000000
00000000
00000000
ENDCHAR
STARTCHAR CAPITAL LETTER Y WITH ACUTE ACCENT
ENCODING 221
SWIDTH 1250 0
DWIDTH 30 0
BBX 30 60 0 -5
BITMAP
0001F000
0001F000
000FF000
000FF000
000FF000
003E0000
003E0000
003E0000
00000000
00000000
00000000
00000000
3F0003F0
3F0003F0
3F0003F0
3F0003F0
3F0003F0
3FC00FF0
07C00F80
07C00F80
07C00F80
07C00F80
07F87F80
01F87E00
01F87E00
01FFFE00
01FFFE00
01FFFE00
003FF000
003FF000
000FC000
000FC000
000FC000
000FC000
000FC000
000FC000
000FC000
000FC000
000FC000
000FC000
000FC000
000FC000
000FC000
000FC000
000FC000
000FC000
000FC000
000FC000
00000000
00000000
00000000
00000000
00000000
00000000
00000000
00000000
00000000
00000000
00000000
00000000
ENDCHAR
STARTCHAR CAPITAL ICELANDIC LETTER THORN
ENCODING 222
SWIDTH 1250 0
DWIDTH 30 0
BBX 30 60 0 -5
BITMAP
00000000
00000000
00000000
00000000
00000000
00000000
00000000
00000000
00000000
00000000
00000000
00000000
07C07E00
07C07E00
07C07E00
07C1FF80
07C1FF80
07CFFFF0
07CFC3F0
07CFC3F0
07FE03F0
07FE03F0
07FE03F0
07F803F0
07F803F0
07C003F0
07C003F0
07C003F0
07C003F0
07C003F0
07F803F0
07F803F0
07FE03F0
07FE03F0
07FE03F0
07CFC3F0
07CFC3F0
07CFFFF0
07C1FF80
07C1FF80
07C07E00
07C07E00
07C07E00
07C00000
07C00000
07C00000
07C00000
3FC00000
3F000000
3F000000
38000000
38000000
38000000
00000000
00000000
00000000
00000000
00000000
00000000
00000000
ENDCHAR
STARTCHAR SMALL GERMAN LETTER SHARP s
ENCODING 223
SWIDTH 1250 0
DWIDTH 30 0
BBX 30 60 0 -5
BITMAP
00000000
00000000
00000000
00000000
00000000
00000000
00000000
00000000
00000000
00000000
00000000
00000000
003FFE00
003FFE00
003FFE00
01FFFF80
01FFFF80
07FFFFF0
07F80FF0
07F80FF0
07C003F0
07C003F0
07C003F0
07C003F0
07C003F0
07C00FF0
07C00FF0
07C1FFF0
07C1FF80
07C1FF80
07C1FFF0
07C1FFF0
07C1FFF0
07C00FF0
07C00FF0
07C003F0
07C003F0
07C003F0
07C003F0
07C003F0
07C00FF0
07C00FF0
07C1FFF0
07C1FF80
07C1FF80
07C1FE00
07C1FE00
07C1FE00
00000000
00000000
00000000
00000000
00000000
00000000
00000000
00000000
00000000
00000000
00000000
00000000
ENDCHAR
STARTCHAR SMALL LETTER a WITH GRAVE ACCENT
ENCODING 224
SWIDTH 1250 0
DWIDTH 30 0
BBX 30 60 0 -5
BITMAP
00000000
00000000
00000000
00000000
00000000
00000000
00000000
000FC000
000FC000
000FC000
000FF000
000FF000
000FFE00
00007E00
00007E00
00000000
00000000
00000000
00000000
00000000
000FFE00
000FFE00
003FFF80
003FFF80
003FFF80
01F803F0
01F803F0
01F803F0
000003F0
000003F0
000FFFF0
000FFFF0
01FFFFF0
01FFFFF0
01FFFFF0
07C003F0
07C003F0
07C00FF0
07C00FF0
07C00FF0
07C07FF0
07C07FF0
07FFFFF0
07FFF3F0
07FFF3F0
01FFC3F0
01FFC3F0
01FFC3F0
00000000
00000000
00000000
00000000
00000000
00000000
00000000
00000000
00000000
00000000
00000000
00000000
ENDCHAR
STARTCHAR SMALL LETTER a WITH ACUTE ACCENT
ENCODING 225
SWIDTH 1250 0
DWIDTH 30 0
BBX 30 60 0 -5
BITMAP
00000000
00000000
00000000
00000000
00000000
00000000
00000000
00007E00
00007E00
00007E00
0001FE00
0001FE00
000FFE00
000FC000
000FC000
00000000
00000000
00000000
00000000
00000000
000FFE00
000FFE00
003FFF80
003FFF80
003FFF80
01F803F0
01F803F0
01F803F0
000003F0
000003F0
000FFFF0
000FFFF0
01FFFFF0
01FFFFF0
01FFFFF0
07C003F0
07C003F0
07C00FF0
07C00FF0
07C00FF0
07C07FF0
07C07FF0
07FFFFF0
07FFF3F0
07FFF3F0
01FFC3F0
01FFC3F0
01FFC3F0
00000000
00000000
00000000
00000000
00000000
00000000
00000000
00000000
00000000
00000000
00000000
00000000
ENDCHAR
STARTCHAR SMALL LETTER a WITH CIRCUMFLEX ACCENT
ENCODING 226
SWIDTH 1250 0
DWIDTH 30 0
BBX 30 60 0 -5
BITMAP
00000000
00000000
00000000
00000000
00000000
00000000
00000000
000FF000
000FF000
000FF000
003FFE00
003FFE00
01FFFF80
01F80F80
01F80F80
00000000
00000000
00000000
00000000
00000000
000FFE00
000FFE00
003FFF80
003FFF80
003FFF80
01F803F0
01F803F0
01F803F0
000003F0
000003F0
000FFFF0
000FFFF0
01FFFFF0
01FFFFF0
01FFFFF0
07C003F0
07C003F0
07C00FF0
07C00FF0
07C00FF0
07C07FF0
07C07FF0
07FFFFF0
07FFF3F0
07FFF3F0
01FFC3F0
01FFC3F0
01FFC3F0
00000000
00000000
00000000
00000000
00000000
00000000
00000000
00000000
00000000
00000000
00000000
00000000
ENDCHAR
STARTCHAR SMALL LETTER a WITH TILDE
ENCODING 227
SWIDTH 1250 0
DWIDTH 30 0
BBX 30 60 0 -5
BITMAP
00000000
00000000
00000000
00000000
00000000
00000000
00000000
01FE0070
01FE0070
01FE0070
07CFC3F0
07CFC3F0
07CFFFF0
0701FF80
0701FF80
00000000
00000000
00000000
00000000
00000000
000FFE00
000FFE00
003FFF80
003FFF80
003FFF80
01F803F0
01F803F0
01F803F0
000003F0
000003F0
000FFFF0
000FFFF0
01FFFFF0
01FFFFF0
01FFFFF0
07C003F0
07C003F0
07C00FF0
07C00FF0
07C00FF0
07C07FF0
07C07FF0
07FFFFF0
07FFF3F0
07FFF3F0
01FFC3F0
01FFC3F0
01FFC3F0
00000000
00000000
00000000
00000000
00000000
00000000
00000000
00000000
00000000
00000000
00000000
00000000
ENDCHAR
STARTCHAR SMALL LETTER a WITH DIAERESIS
ENCODING 228
SWIDTH 1250 0
DWIDTH 30 0
BBX 30 60 0 -5
BITMAP
00000000
00000000
00000000
00000000
00000000
00000000
00000000
00000000
00000000
00000000
003E0F80
003E0F80
003E0F80
003E0F80
003E0F80
00000000
00000000
00000000
00000000
00000000
000FFE00
000FFE00
003FFF80
003FFF80
003FFF80
01F803F0
01F803F0
01F803F0
000003F0
000003F0
000FFFF0
000FFFF0
01FFFFF0
01FFFFF0
01FFFFF0
07C003F0
07C003F0
07C00FF0
07C00FF0
07C00FF0
07C07FF0
07C07FF0
07FFFFF0
07FFF3F0
07FFF3F0
01FFC3F0
01FFC3F0
01FFC3F0
00000000
00000000
00000000
00000000
00000000
00000000
00000000
00000000
00000000
00000000
00000000
00000000
ENDCHAR
STARTCHAR SMALL LETTER a WITH RING ABOVE
ENCODING 229
SWIDTH 1250 0
DWIDTH 30 0
BBX 30 60 0 -5
BITMAP
00000000
00000000
00000000
00000000
00000000
00000000
00000000
000FF000
000FF000
000FF000
003E7E00
003E7E00
003E7E00
003E7E00
003E7E00
000FF000
000FF000
000FF000
00000000
00000000
000FFE00
000FFE00
003FFF80
003FFF80
003FFF80
01F803F0
01F803F0
01F803F0
000003F0
000003F0
000FFFF0
000FFFF0
01FFFFF0
01FFFFF0
01FFFFF0
07C003F0
07C003F0
07C00FF0
07C00FF0
07C00FF0
07C07FF0
07C07FF0
07FFFFF0
07FFF3F0
07FFF3F0
01FFC3F0
01FFC3F0
01FFC3F0
00000000
00000000
00000000
00000000
00000000
00000000
00000000
00000000
00000000
00000000
00000000
00000000
ENDCHAR
STARTCHAR SMALL DIPHTHONG a WITH e
ENCODING 230
SWIDTH 1250 0
DWIDTH 30 0
BBX 30 60 0 -5
BITMAP
00000000
00000000
00000000
00000000
00000000
00000000
00000000
00000000
00000000
00000000
00000000
00000000
00000000
00000000
00000000
00000000
00000000
00000000
00000000
00000000
07F87F80
07F87F80
3FFFFFF0
3FFFFFF0
3FFFFFF0
380FC3F0
380FC3F0
380FC3F0
000FC3F0
000FC3F0
01FFFFF0
01FFFFF0
07FFFFF0
07FFFF80
07FFFF80
3F0FC000
3F0FC000
3F0FC000
3F0FC000
3F0FC000
3F0FC3F0
3F0FC3F0
3FFFFFF0
3FFFFFF0
3FFFFFF0
07FFFF80
07FFFF80
07FFFF80
00000000
00000000
00000000
00000000
00000000
00000000
00000000
00000000
00000000
00000000
00000000
00000000
ENDCHAR
STARTCHAR SMALL LETTER c WITH CEDILLA
ENCODING 231
SWIDTH 1250 0
DWIDTH 30 0
BBX 30 60 0 -5
BITMAP
00000000
00000000
00000000
00000000
00000000
00000000
00000000
00000000
00000000
00000000
00000000
00000000
00000000
00000000
00000000
00000000
00000000
00000000
00000000
00000000
00000000
00000000
000FFF80
000FFF80
000FFF80
01FFFF80
01FFFF80
07FFFFF0
07F803F0
07F803F0
07C003F0
07C003F0
07C003F0
07C00000
07C00000
07C00000
07C00000
07C00000
07C00000
07C00000
07F803F0
07F803F0
07FFFFF0
01FFFFF0
01FFFFF0
003FFF80
003FFF80
003FFF80
000FC000
000FC000
000FF000
000FF000
000FFE00
00007E00
00007E00
003FFE00
003FFE00
003FFE00
003FF000
003FF000
ENDCHAR
STARTCHAR SMALL LETTER e WITH GRAVE ACCENT
ENCODING 232
SWIDTH 1250 0
DWIDTH 30 0
BBX 30 60 0 -5
BITMAP
00000000
00000000
00000000
00000000
00000000
00000000
00000000
00000000
00000000
00000000
000FC000
000FC000
000FF000
000FF000
000FF000
00007E00
00007E00
00007E00
00000000
00000000
00000000
00000000
003FFE00
003FFE00
003FFE00
01FFFF80
01FFFF80
07FFFFF0
07F803F0
07F803F0
07C003F0
07C003F0
07FFFFF0
07FFFFF0
07FFFFF0
07FFFFF0
07FFFFF0
07FFFFF0
07C00000
07C00000
07C003F0
07C003F0
07FFFFF0
01FFFFF0
01FFFFF0
003FFF80
003FFF80
003FFF80
00000000
00000000
00000000
00000000
00000000
00000000
00000000
00000000
00000000
00000000
00000000
00000000
ENDCHAR
STARTCHAR SMALL LETTER e WITH ACUTE ACCENT
ENCODING 233
SWIDTH 1250 0
DWIDTH 30 0
BBX 30 60 0 -5
BITMAP
00000000
00000000
00000000
00000000
00000000
00000000
00000000
00000000
00000000
00000000
0001F000
0001F000
000FF000
000FF000
000FF000
003E0000
003E0000
003E0000
00000000
00000000
00000000
00000000
003FFE00
003FFE00
003FFE00
01FFFF80
01FFFF80
07FFFFF0
07F803F0
07F803F0
07C003F0
07C003F0
07FFFFF0
07FFFFF0
07FFFFF0
07FFFFF0
07FFFFF0
07FFFFF0
07C00000
07C00000
07C003F0
07C003F0
07FFFFF0
01FFFFF0
01FFFFF0
003FFF80
003FFF80
003FFF80
00000000
00000000
00000000
00000000
00000000
00000000
00000000
00000000
00000000
00000000
00000000
00000000
ENDCHAR
STARTCHAR SMALL LETTER e WITH CIRCUMFLEX ACCENT
ENCODING 234
SWIDTH 1250 0
DWIDTH 30 0
BBX 30 60 0 -5
BITMAP
00000000
00000000
00000000
00000000
00000000
00000000
00000000
00000000
00000000
00000000
000FF000
000FF000
003FFE00
003FFE00
003FFE00
01F80F80
01F80F80
01F80F80
00000000
00000000
00000000
00000000
003FFE00
003FFE00
003FFE00
01FFFF80
01FFFF80
07FFFFF0
07F803F0
07F803F0
07C003F0
07C003F0
07FFFFF0
07FFFFF0
07FFFFF0
07FFFFF0
07FFFFF0
07FFFFF0
07C00000
07C00000
07C003F0
07C003F0
07FFFFF0
01FFFFF0
01FFFFF0
003FFF80
003FFF80
003FFF80
00000000
00000000
00000000
00000000
00000000
00000000
00000000
00000000
00000000
00000000
00000000
00000000
ENDCHAR
STARTCHAR SMALL LETTER e WITH DIAERESIS
ENCODING 235
SWIDTH 1250 0
DWIDTH 30 0
BBX 30 60 0 -5
BITMAP
00000000
00000000
00000000
00000000
00000000
00000000
00000000
00000000
00000000
00000000
00000000
00000000
01F80F80
01F80F80
01F80F80
01F80F80
01F80F80
01F80F80
00000000
00000000
00000000
00000000
003FFE00
003FFE00
003FFE00
01FFFF80
01FFFF80
07FFFFF0
07F803F0
07F803F0
07C003F0
07C003F0
07FFFFF0
07FFFFF0
07FFFFF0
07FFFFF0
07FFFFF0
07FFFFF0
07C00000
07C00000
07C003F0
07C003F0
07FFFFF0
01FFFFF0
01FFFFF0
003FFF80
003FFF80
003FFF80
00000000
00000000
00000000
00000000
00000000
00000000
00000000
00000000
00000000
00000000
00000000
00000000
ENDCHAR
STARTCHAR SMALL LETTER i WITH GRAVE ACCENT
ENCODING 236
SWIDTH 1250 0
DWIDTH 30 0
BBX 30 60 0 -5
BITMAP
00000000
00000000
00000000
00000000
00000000
00000000
00000000
00000000
00000000
00000000
003E0000
003E0000
003FC000
003FC000
003FC000
0001F000
0001F000
0001F000
00000000
00000000
00000000
00000000
000FC000
000FC000
000FC000
000FC000
000FC000
000FC000
000FC000
000FC000
000FC000
000FC000
000FC000
000FC000
000FC000
000FC000
000FC000
000FC000
000FC000
000FC000
000FC000
000FC000
000FC000
000FC000
000FC000
000FC000
000FC000
000FC000
00000000
00000000
00000000
00000000
00000000
00000000
00000000
00000000
00000000
00000000
00000000
00000000
ENDCHAR
STARTCHAR SMALL LETTER i WITH ACUTE ACCENT
ENCODING 237
SWIDTH 1250 0
DWIDTH 30 0
BBX 30 60 0 -5
BITMAP
00000000
00000000
00000000
00000000
00000000
00000000
00000000
00000000
00000000
00000000
0001F000
0001F000
000FF000
000FF000
000FF000
003E0000
003E0000
003E0000
00000000
00000000
00000000
00000000
000FC000
000FC000
000FC000
000FC000
000FC000
000FC000
000FC000
000FC000
000FC000
000FC000
000FC000
000FC000
000FC000
000FC000
000FC000
000FC000
000FC000
000FC000
000FC000
000FC000
000FC000
000FC000
000FC000
000FC000
000FC000
000FC000
00000000
00000000
00000000
00000000
00000000
00000000
00000000
00000000
00000000
00000000
00000000
00000000
ENDCHAR
STARTCHAR SMALL LETTER i WITH CIRCUMFLEX ACCENT
ENCODING 238
SWIDTH 1250 0
DWIDTH 30 0
BBX 30 60 0 -5
BITMAP
00000000
00000000
00000000
00000000
00000000
00000000
00000000
00000000
00000000
00000000
000FC000
000FC000
003FF000
003FF000
003FF000
01F87E00
01F87E00
01F87E00
00000000
00000000
00000000
00000000
000FC000
000FC000
000FC000
000FC000
000FC000
000FC000
000FC000
000FC000
000FC000
000FC000
000FC000
000FC000
000FC000
000FC000
000FC000
000FC000
000FC000
000FC000
000FC000
000FC000
000FC000
000FC000
000FC000
000FC000
000FC000
000FC000
00000000
00000000
00000000
00000000
00000000
00000000
00000000
00000000
00000000
00000000
00000000
00000000
ENDCHAR
STARTCHAR SMALL LETTER i WITH DIAERESIS
ENCODING 239
SWIDTH 1250 0
DWIDTH 30 0
BBX 30 60 0 -5
BITMAP
00000000
00000000
00000000
00000000
00000000
00000000
00000000
00000000
00000000
00000000
00000000
00000000
01F87E00
01F87E00
01F87E00
01F87E00
01F87E00
01F87E00
00000000
00000000
00000000
00000000
000FC000
000FC000
000FC000
000FC000
000FC000
000FC000
000FC000
000FC000
000FC000
000FC000
000FC000
000FC000
000FC000
000FC000
000FC000
000FC000
000FC000
000FC000
000FC000
000FC000
000FC000
000FC000
000FC000
000FC000
000FC000
000FC000
00000000
00000000
00000000
00000000
00000000
00000000
00000000
00000000
00000000
00000000
00000000
00000000
ENDCHAR
STARTCHAR SMALL ICELANDIC LETTER ETH
ENCODING 240
SWIDTH 1250 0
DWIDTH 30 0
BBX 30 60 0 -5
BITMAP
00000000
00000000
00000000
00000000
00000000
00000000
00000000
00000000
00000000
00000000
00000000
00000000
01FE0FF0
01FE0FF0
01FE0FF0
01FFFFF0
01FFFFF0
01FFFFF0
0001FE00
0001FE00
003FFF80
003FFF80
07FFFFF0
07FE0FF0
07FE0FF0
07C003F0
07C003F0
07FFFFF0
003FFFF0
003FFFF0
01FFFFF0
01FFFFF0
07FFFFF0
07F803F0
07F803F0
07C003F0
07C003F0
07C003F0
07C003F0
07C003F0
07F80FF0
07F80FF0
07FFFFF0
01FFFF80
01FFFF80
003FFE00
003FFE00
003FFE00
00000000
00000000
00000000
00000000
00000000
00000000
00000000
00000000
00000000
00000000
00000000
00000000
ENDCHAR
STARTCHAR SMALL LETTER n WITH TILDE
ENCODING 241
SWIDTH 1250 0
DWIDTH 30 0
BBX 30 60 0 -5
BITMAP
00000000
00000000
00000000
00000000
00000000
00000000
00000000
00000000
00000000
00000000
01FE0070
01FE0070
07FFC3F0
07CFC3F0
07CFC3F0
0701FF80
0701FF80
0701FF80
00000000
00000000
00000000
00000000
07C1FE00
07C1FE00
07C1FE00
07CFFF80
07CFFF80
07FFFFF0
07FE03F0
07FE03F0
07F803F0
07F803F0
07F803F0
07C003F0
07C003F0
07C003F0
07C003F0
07C003F0
07C003F0
07C003F0
07C003F0
07C003F0
07C003F0
07C003F0
07C003F0
07C003F0
07C003F0
07C003F0
00000000
00000000
00000000
00000000
00000000
00000000
00000000
00000000
00000000
00000000
00000000
00000000
ENDCHAR
STARTCHAR SMALL LETTER o WITH GRAVE ACCENT
ENCODING 242
SWIDTH 1250 0
DWIDTH 30 0
BBX 30 60 0 -5
BITMAP
00000000
00000000
00000000
00000000
00000000
00000000
00000000
00000000
00000000
00000000
000FC000
000FC000
000FF000
000FF000
000FF000
00007E00
00007E00
00007E00
00000000
00000000
00000000
00000000
003FFE00
003FFE00
003FFE00
01FFFF80
01FFFF80
07FFFFF0
07F80FF0
07F80FF0
07C003F0
07C003F0
07C003F0
07C003F0
07C003F0
07C003F0
07C003F0
07C003F0
07C003F0
07C003F0
07F80FF0
07F80FF0
07FFFFF0
01FFFF80
01FFFF80
003FFE00
003FFE00
003FFE00
00000000
00000000
00000000
00000000
00000000
00000000
00000000
00000000
00000000
00000000
00000000
00000000
ENDCHAR
STARTCHAR SMALL LETTER o WITH ACUTE ACCENT
ENCODING 243
SWIDTH 1250 0
DWIDTH 30 0
BBX 30 60 0 -5
BITMAP
00000000
00000000
00000000
00000000
00000000
00000000
00000000
00000000
00000000
00000000
0001F000
0001F000
000FF000
000FF000
000FF000
003E0000
003E0000
003E0000
00000000
00000000
00000000
00000000
003FFE00
003FFE00
003FFE00
01FFFF80
01FFFF80
07FFFFF0
07F80FF0
07F80FF0
07C003F0
07C003F0
07C003F0
07C003F0
07C003F0
07C003F0
07C003F0
07C003F0
07C003F0
07C003F0
07F80FF0
07F80FF0
07FFFFF0
01FFFF80
01FFFF80
003FFE00
003FFE00
003FFE00
00000000
00000000
00000000
00000000
00000000
00000000
00000000
00000000
00000000
00000000
00000000
00000000
ENDCHAR
STARTCHAR SMALL LETTER o WITH CIRCUMFLEX ACCENT
ENCODING 244
SWIDTH 1250 0
DWIDTH 30 0
BBX 30 60 0 -5
BITMAP
00000000
00000000
00000000
00000000
00000000
00000000
00000000
00000000
00000000
00000000
000FF000
000FF000
003FFE00
003FFE00
003FFE00
01F80F80
01F80F80
01F80F80
00000000
00000000
00000000
00000000
003FFE00
003FFE00
003FFE00
01FFFF80
01FFFF80
07FFFFF0
07F80FF0
07F80FF0
07C003F0
07C003F0
07C003F0
07C003F0
07C003F0
07C003F0
07C003F0
07C003F0
07C003F0
07C003F0
07F80FF0
07F80FF0
07FFFFF0
01FFFF80
01FFFF80
003FFE00
003FFE00
003FFE00
00000000
00000000
00000000
00000000
00000000
00000000
00000000
00000000
00000000
00000000
00000000
00000000
ENDCHAR
STARTCHAR SMALL LETTER o WITH TILDE
ENCODING 245
SWIDTH 1250 0
DWIDTH 30 0
BBX 30 60 0 -5
BITMAP
00000000
00000000
00000000
00000000
00000000
00000000
00000000
00000000
00000000
00000000
01FE0070
01FE0070
07FFC3F0
07CFC3F0
07CFC3F0
0701FF80
0701FF80
0701FF80
00000000
00000000
00000000
00000000
003FFE00
003FFE00
003FFE00
01FFFF80
01FFFF80
07FFFFF0
07F80FF0
07F80FF0
07C003F0
07C003F0
07C003F0
07C003F0
07C003F0
07C003F0
07C003F0
07C003F0
07C003F0
07C003F0
07F80FF0
07F80FF0
07FFFFF0
01FFFF80
01FFFF80
003FFE00
003FFE00
003FFE00
00000000
00000000
00000000
00000000
00000000
00000000
00000000
00000000
00000000
00000000
00000000
00000000
ENDCHAR
STARTCHAR SMALL LETTER o WITH DIAERESIS
ENCODING 246
SWIDTH 1250 0
DWIDTH 30 0
BBX 30 60 0 -5
BITMAP
00000000
00000000
00000000
00000000
00000000
00000000
00000000
00000000
00000000
00000000
00000000
00000000
01F80F80
01F80F80
01F80F80
01F80F80
01F80F80
01F80F80
00000000
00000000
00000000
00000000
003FFE00
003FFE00
003FFE00
01FFFF80
01FFFF80
07FFFFF0
07F80FF0
07F80FF0
07C003F0
07C003F0
07C003F0
07C003F0
07C003F0
07C003F0
07C003F0
07C003F0
07C003F0
07C003F0
07F80FF0
07F80FF0
07FFFFF0
01FFFF80
01FFFF80
003FFE00
003FFE00
003FFE00
00000000
00000000
00000000
00000000
00000000
00000000
00000000
00000000
00000000
00000000
00000000
00000000
ENDCHAR
STARTCHAR DIVISION SIGN
ENCODING 247
SWIDTH 1250 0
DWIDTH 30 0
BBX 30 60 0 -5
BITMAP
00000000
00000000
00000000
00000000
00000000
00000000
00000000
00000000
00000000
00000000
00000000
00000000
00000000
00000000
00000000
00000000
00000000
000FC000
000FC000
000FC000
003FF000
003FF000
003FF000
000FC000
000FC000
00000000
00000000
3FFFFFF0
3FFFFFF0
3FFFFFF0
3FFFFFF0
3FFFFFF0
3FFFFFF0
00000000
00000000
000FC000
000FC000
003FF000
003FF000
003FF000
000FC000
000FC000
000FC000
00000000
00000000
00000000
00000000
00000000
00000000
00000000
00000000
00000000
00000000
00000000
00000000
00000000
00000000
00000000
00000000
00000000
ENDCHAR
STARTCHAR SMALL LETTER o WITH OBLIQUE STROKE
ENCODING 248
SWIDTH 1250 0
DWIDTH 30 0
BBX 30 60 0 -5
BITMAP
00000000
00000000
00000000
00000000
00000000
00000000
00000000
00000000
00000000
00000000
00000000
00000000
00000000
00000000
00000000
00000000
00000000
00000000
00000000
00000000
00000000
00000000
003FF3F0
003FF3F0
003FF3F0
01FFFFF0
01FFFFF0
07FFFFF0
07F87F80
07F87F80
07C1FFF0
07C1FFF0
07C1FFF0
07C1F3F0
07C1F3F0
07CFF3F0
07CFF3F0
07FFF3F0
07FFC3F0
07FFC3F0
01FE0FF0
01FE0FF0
07FFFFF0
07FFFF80
07FFFF80
07CFFE00
07CFFE00
07CFFE00
00000000
00000000
00000000
00000000
00000000
00000000
00000000
00000000
00000000
00000000
00000000
00000000
ENDCHAR
STARTCHAR SMALL LETTER u WITH GRAVE ACCENT
ENCODING 249
SWIDTH 1250 0
DWIDTH 30 0
BBX 30 60 0 -5
BITMAP
00000000
00000000
00000000
00000000
00000000
00000000
00000000
00000000
00000000
00000000
000FC000
000FC000
000FF000
000FF000
000FF000
00007E00
00007E00
00007E00
00000000
00000000
00000000
00000000
07C003F0
07C003F0
07C003F0
07C003F0
07C003F0
07C003F0
07C003F0
07C003F0
07C003F0
07C003F0
07C003F0
07C003F0
07C003F0
07C003F0
07C003F0
07C00FF0
07C00FF0
07C00FF0
07F87FF0
07F87FF0
07FFFFF0
01FFF3F0
01FFF3F0
003FC3F0
003FC3F0
003FC3F0
00000000
00000000
00000000
00000000
00000000
00000000
00000000
00000000
00000000
00000000
00000000
00000000
ENDCHAR
STARTCHAR SMALL LETTER u WITH ACUTE ACCENT
ENCODING 250
SWIDTH 1250 0
DWIDTH 30 0
BBX 30 60 0 -5
BITMAP
00000000
00000000
00000000
00000000
00000000
00000000
00000000
00000000
00000000
00000000
0001F000
0001F000
000FF000
000FF000
000FF000
003E0000
003E0000
003E0000
00000000
00000000
00000000
00000000
07C003F0
07C003F0
07C003F0
07C003F0
07C003F0
07C003F0
07C003F0
07C003F0
07C003F0
07C003F0
07C003F0
07C003F0
07C003F0
07C003F0
07C003F0
07C00FF0
07C00FF0
07C00FF0
07F87FF0
07F87FF0
07FFFFF0
01FFF3F0
01FFF3F0
003FC3F0
003FC3F0
003FC3F0
00000000
00000000
00000000
00000000
00000000
00000000
00000000
00000000
00000000
00000000
00000000
00000000
ENDCHAR
STARTCHAR SMALL LETTER u WITH CIRCUMFLEX ACCENT
ENCODING 251
SWIDTH 1250 0
DWIDTH 30 0
BBX 30 60 0 -5
BITMAP
00000000
00000000
00000000
00000000
00000000
00000000
00000000
00000000
00000000
00000000
000FF000
000FF000
003FFE00
003FFE00
003FFE00
01F80F80
01F80F80
01F80F80
00000000
00000000
00000000
00000000
07C003F0
07C003F0
07C003F0
07C003F0
07C003F0
07C003F0
07C003F0
07C003F0
07C003F0
07C003F0
07C003F0
07C003F0
07C003F0
07C003F0
07C003F0
07C00FF0
07C00FF0
07C00FF0
07F87FF0
07F87FF0
07FFFFF0
01FFF3F0
01FFF3F0
003FC3F0
003FC3F0
003FC3F0
00000000
00000000
00000000
00000000
00000000
00000000
00000000
00000000
00000000
00000000
00000000
00000000
ENDCHAR
STARTCHAR SMALL LETTER u WITH DIAERESIS
ENCODING 252
SWIDTH 1250 0
DWIDTH 30 0
BBX 30 60 0 -5
BITMAP
00000000
00000000
00000000
00000000
00000000
00000000
00000000
00000000
00000000
00000000
00000000
00000000
01F80F80
01F80F80
01F80F80
01F80F80
01F80F80
01F80F80
00000000
00000000
00000000
00000000
07C003F0
07C003F0
07C003F0
07C003F0
07C003F0
07C003F0
07C003F0
07C003F0
07C003F0
07C003F0
07C003F0
07C003F0
07C003F0
07C003F0
07C003F0
07C00FF0
07C00FF0
07C00FF0
07F87FF0
07F87FF0
07FFFFF0
01FFF3F0
01FFF3F0
003FC3F0
003FC3F0
003FC3F0
00000000
00000000
00000000
00000000
00000000
00000000
00000000
00000000
00000000
00000000
00000000
00000000
ENDCHAR
STARTCHAR SMALL LETTER y WITH ACUTE ACCENT
ENCODING 253
SWIDTH 1250 0
DWIDTH 30 0
BBX 30 60 0 -5
BITMAP
00000000
00000000
00000000
00000000
00000000
00000000
00000000
00000000
00000000
00000000
00007E00
00007E00
0001FE00
0001FE00
0001FE00
000FC000
000FC000
000FC000
00000000
00000000
00000000
00000000
07C003F0
07C003F0
07C003F0
07C003F0
07C003F0
07C003F0
07C003F0
07C003F0
07C003F0
07C003F0
07C003F0
07C003F0
07C003F0
07C003F0
07C003F0
07C003F0
07C003F0
07C003F0
07F80FF0
07F80FF0
07FFFFF0
01FFFFF0
01FFFFF0
003FF3F0
003FF3F0
003FF3F0
000003F0
000003F0
000003F0
000003F0
00000FF0
00000FF0
00000FF0
01FFFF80
01FFFF80
01FFFF80
003FFE00
003FFE00
ENDCHAR
STARTCHAR SMALL ICELANDIC LETTER THORN
ENCODING 254
SWIDTH 1250 0
DWIDTH 30 0
BBX 30 60 0 -5
BITMAP
00000000
00000000
00000000
00000000
00000000
00000000
00000000
00000000
00000000
00000000
00000000
00000000
07C00000
07C00000
07C00000
07C00000
07C00000
07C00000
07C00000
07C00000
07C00000
07C00000
07C1FE00
07C1FE00
07C1FE00
07CFFF80
07CFFF80
07FFFFF0
07FE0FF0
07FE0FF0
07F803F0
07F803F0
07F803F0
07C003F0
07C003F0
07C003F0
07C003F0
07C00FF0
07C00FF0
07C00FF0
07C07F80
07C07F80
07FFFF80
07FFFE00
07FFFE00
07FFF000
07FFF000
07FFF000
07C00000
07C00000
07C00000
07C00000
07C00000
07C00000
07C00000
07C00000
07C00000
07C00000
07C00000
07C00000
ENDCHAR
STARTCHAR SMALL LETTER y WITH DIAERESIS
ENCODING 255
SWIDTH 1250 0
DWIDTH 30 0
BBX 30 60 0 -5
BITMAP
00000000
00000000
00000000
00000000
00000000
00000000
00000000
00000000
00000000
00000000
00000000
00000000
01F80F80
01F80F80
01F80F80
01F80F80
01F80F80
01F80F80
00000000
00000000
00000000
00000000
07C003F0
07C003F0
07C003F0
07C003F0
07C003F0
07C003F0
07C003F0
07C003F0
07C003F0
07C003F0
07C003F0
07C003F0
07C003F0
07C003F0
07C003F0
07C003F0
07C003F0
07C003F0
07F80FF0
07F80FF0
07FFFFF0
01FFFFF0
01FFFFF0
003FF3F0
003FF3F0
003FF3F0
000003F0
000003F0
000003F0
000003F0
00000FF0
00000FF0
00000FF0
01FFFF80
01FFFF80
01FFFF80
003FFE00
003FFE00
ENDCHAR
ENDFONT
